<svg xmlns="http://www.w3.org/2000/svg" xmlns:xlink="http://www.w3.org/1999/xlink" contentStyleType="text/css" data-diagram-type="SEQUENCE" height="545px" preserveAspectRatio="none" style="width:1979px;height:545px;background:#FFFFFF;" version="1.1" viewBox="0 0 1979 545" width="1979px" zoomAndPan="magnify"><defs/><g><g><title>PartSharingShortcutService</title><rect fill="#FFFFFF" height="111.5313" style="stroke:#181818;stroke-width:1;" width="10" x="647.4873" y="112.4297"/></g><g><title>RepositoryManagerFactory</title><rect fill="#FFFFFF" height="29.1328" style="stroke:#181818;stroke-width:1;" width="10" x="862.6099" y="141.5625"/></g><rect fill="none" height="75.3984" style="stroke:#000000;stroke-width:1.5;" width="1222.7539" x="538.7964" y="282.8984"/><rect fill="none" height="46.2656" style="stroke:#000000;stroke-width:1.5;" width="1435.0703" x="538.7964" y="401.4297"/><g><title>User</title><rect fill="#000000" fill-opacity="0.00000" height="383.3984" width="8" x="34.9551" y="81.2969"/><line style="stroke:#181818;stroke-width:0.5;stroke-dasharray:5.0,5.0;" x1="38" x2="38" y1="81.2969" y2="464.6953"/></g><g><title>PartSharingShortcutService</title><rect fill="#000000" fill-opacity="0.00000" height="383.3984" width="8" x="648.4873" y="81.2969"/><line style="stroke:#181818;stroke-width:0.5;stroke-dasharray:5.0,5.0;" x1="651.7964" x2="651.7964" y1="81.2969" y2="464.6953"/></g><g><title>RepositoryManagerFactory</title><rect fill="#000000" fill-opacity="0.00000" height="383.3984" width="8" x="863.6099" y="81.2969"/><line style="stroke:#181818;stroke-width:0.5;stroke-dasharray:5.0,5.0;" x1="867.1782" x2="867.1782" y1="81.2969" y2="464.6953"/></g><g><title>CatalogPartRepository</title><rect fill="#000000" fill-opacity="0.00000" height="383.3984" width="8" x="1210.4116" y="81.2969"/><line style="stroke:#181818;stroke-width:0.5;stroke-dasharray:5.0,5.0;" x1="1213.8599" x2="1213.8599" y1="81.2969" y2="464.6953"/></g><g><title>EnablementServiceStackRepository</title><rect fill="#000000" fill-opacity="0.00000" height="383.3984" width="8" x="1437.9004" y="81.2969"/><line style="stroke:#181818;stroke-width:0.5;stroke-dasharray:5.0,5.0;" x1="1440.9634" x2="1440.9634" y1="81.2969" y2="464.6953"/></g><g><title>LegalEntityRepository</title><rect fill="#000000" fill-opacity="0.00000" height="383.3984" width="8" x="1663.6938" y="81.2969"/><line style="stroke:#181818;stroke-width:0.5;stroke-dasharray:5.0,5.0;" x1="1666.8374" x2="1666.8374" y1="81.2969" y2="464.6953"/></g><g><title>BusinessPartnerRepository</title><rect fill="#000000" fill-opacity="0.00000" height="383.3984" width="8" x="1858.7085" y="81.2969"/><line style="stroke:#181818;stroke-width:0.5;stroke-dasharray:5.0,5.0;" x1="1862.5503" x2="1862.5503" y1="81.2969" y2="464.6953"/></g><g class="participant participant-head" data-participant="User"><text fill="#000000" font-family="sans-serif" font-size="14" lengthAdjust="spacing" textLength="31.9102" x="20" y="77.9951">User</text><ellipse cx="38.9551" cy="13.5" fill="#E2E2F0" rx="8" ry="8" style="stroke:#181818;stroke-width:0.5;"/><path d="M38.9551,21.5 L38.9551,48.5 M25.9551,29.5 L51.9551,29.5 M38.9551,48.5 L25.9551,63.5 M38.9551,48.5 L51.9551,63.5" fill="none" style="stroke:#181818;stroke-width:0.5;"/></g><g class="participant participant-tail" data-participant="User"><text fill="#000000" font-family="sans-serif" font-size="14" lengthAdjust="spacing" textLength="31.9102" x="20" y="476.6904">User</text><ellipse cx="38.9551" cy="488.4922" fill="#E2E2F0" rx="8" ry="8" style="stroke:#181818;stroke-width:0.5;"/><path d="M38.9551,496.4922 L38.9551,523.4922 M25.9551,504.4922 L51.9551,504.4922 M38.9551,523.4922 L25.9551,538.4922 M38.9551,523.4922 L51.9551,538.4922" fill="none" style="stroke:#181818;stroke-width:0.5;"/></g><g class="participant participant-head" data-participant="PartSharingShortcutService"><rect fill="#E2E2F0" height="30.2969" rx="2.5" ry="2.5" style="stroke:#181818;stroke-width:0.5;" width="207.3818" x="548.7964" y="50"/><text fill="#000000" font-family="sans-serif" font-size="14" lengthAdjust="spacing" textLength="193.3818" x="555.7964" y="69.9951">PartSharingShortcutService</text></g><g class="participant participant-tail" data-participant="PartSharingShortcutService"><rect fill="#E2E2F0" height="30.2969" rx="2.5" ry="2.5" style="stroke:#181818;stroke-width:0.5;" width="207.3818" x="548.7964" y="463.6953"/><text fill="#000000" font-family="sans-serif" font-size="14" lengthAdjust="spacing" textLength="193.3818" x="555.7964" y="483.6904">PartSharingShortcutService</text></g><g class="participant participant-head" data-participant="RepositoryManagerFactory"><rect fill="#E2E2F0" height="30.2969" rx="2.5" ry="2.5" style="stroke:#181818;stroke-width:0.5;" width="202.8633" x="766.1782" y="50"/><text fill="#000000" font-family="sans-serif" font-size="14" lengthAdjust="spacing" textLength="188.8633" x="773.1782" y="69.9951">RepositoryManagerFactory</text></g><g class="participant participant-tail" data-participant="RepositoryManagerFactory"><rect fill="#E2E2F0" height="30.2969" rx="2.5" ry="2.5" style="stroke:#181818;stroke-width:0.5;" width="202.8633" x="766.1782" y="463.6953"/><text fill="#000000" font-family="sans-serif" font-size="14" lengthAdjust="spacing" textLength="188.8633" x="773.1782" y="483.6904">RepositoryManagerFactory</text></g><g class="participant participant-head" data-participant="CatalogPartRepository"><rect fill="#E2E2F0" height="30.2969" rx="2.5" ry="2.5" style="stroke:#181818;stroke-width:0.5;" width="171.1035" x="1128.8599" y="50"/><text fill="#000000" font-family="sans-serif" font-size="14" lengthAdjust="spacing" textLength="157.1035" x="1135.8599" y="69.9951">CatalogPartRepository</text></g><g class="participant participant-tail" data-participant="CatalogPartRepository"><rect fill="#E2E2F0" height="30.2969" rx="2.5" ry="2.5" style="stroke:#181818;stroke-width:0.5;" width="171.1035" x="1128.8599" y="463.6953"/><text fill="#000000" font-family="sans-serif" font-size="14" lengthAdjust="spacing" textLength="157.1035" x="1135.8599" y="483.6904">CatalogPartRepository</text></g><g class="participant participant-head" data-participant="EnablementServiceStackRepository"><rect fill="#E2E2F0" height="30.2969" rx="2.5" ry="2.5" style="stroke:#181818;stroke-width:0.5;" width="263.874" x="1309.9634" y="50"/><text fill="#000000" font-family="sans-serif" font-size="14" lengthAdjust="spacing" textLength="249.874" x="1316.9634" y="69.9951">EnablementServiceStackRepository</text></g><g class="participant participant-tail" data-participant="EnablementServiceStackRepository"><rect fill="#E2E2F0" height="30.2969" rx="2.5" ry="2.5" style="stroke:#181818;stroke-width:0.5;" width="263.874" x="1309.9634" y="463.6953"/><text fill="#000000" font-family="sans-serif" font-size="14" lengthAdjust="spacing" textLength="249.874" x="1316.9634" y="483.6904">EnablementServiceStackRepository</text></g><g class="participant participant-head" data-participant="LegalEntityRepository"><rect fill="#E2E2F0" height="30.2969" rx="2.5" ry="2.5" style="stroke:#181818;stroke-width:0.5;" width="167.7129" x="1583.8374" y="50"/><text fill="#000000" font-family="sans-serif" font-size="14" lengthAdjust="spacing" textLength="153.7129" x="1590.8374" y="69.9951">LegalEntityRepository</text></g><g class="participant participant-tail" data-participant="LegalEntityRepository"><rect fill="#E2E2F0" height="30.2969" rx="2.5" ry="2.5" style="stroke:#181818;stroke-width:0.5;" width="167.7129" x="1583.8374" y="463.6953"/><text fill="#000000" font-family="sans-serif" font-size="14" lengthAdjust="spacing" textLength="153.7129" x="1590.8374" y="483.6904">LegalEntityRepository</text></g><g class="participant participant-head" data-participant="BusinessPartnerRepository"><rect fill="#E2E2F0" height="30.2969" rx="2.5" ry="2.5" style="stroke:#181818;stroke-width:0.5;" width="202.3164" x="1761.5503" y="50"/><text fill="#000000" font-family="sans-serif" font-size="14" lengthAdjust="spacing" textLength="188.3164" x="1768.5503" y="69.9951">BusinessPartnerRepository</text></g><g class="participant participant-tail" data-participant="BusinessPartnerRepository"><rect fill="#E2E2F0" height="30.2969" rx="2.5" ry="2.5" style="stroke:#181818;stroke-width:0.5;" width="202.3164" x="1761.5503" y="463.6953"/><text fill="#000000" font-family="sans-serif" font-size="14" lengthAdjust="spacing" textLength="188.3164" x="1768.5503" y="483.6904">BusinessPartnerRepository</text></g><g><title>PartSharingShortcutService</title><rect fill="#FFFFFF" height="111.5313" style="stroke:#181818;stroke-width:1;" width="10" x="647.4873" y="112.4297"/></g><g><title>RepositoryManagerFactory</title><rect fill="#FFFFFF" height="29.1328" style="stroke:#181818;stroke-width:1;" width="10" x="862.6099" y="141.5625"/></g><g class="message" data-participant-1="User" data-participant-2="PartSharingShortcutService"><polygon fill="#181818" points="635.4873,108.4297,645.4873,112.4297,635.4873,116.4297,639.4873,112.4297" style="stroke:#181818;stroke-width:1;"/><line style="stroke:#181818;stroke-width:1;" x1="38.9551" x2="641.4873" y1="112.4297" y2="112.4297"/><text fill="#000000" font-family="sans-serif" font-size="13" lengthAdjust="spacing" textLength="589.5322" x="45.9551" y="107.3638">create_catalog_part_sharing_shortcut(create_input, auto_generate_part_type_information)</text></g><g class="message" data-participant-1="PartSharingShortcutService" data-participant-2="RepositoryManagerFactory"><polygon fill="#181818" points="850.6099,137.5625,860.6099,141.5625,850.6099,145.5625,854.6099,141.5625" style="stroke:#181818;stroke-width:1;"/><line style="stroke:#181818;stroke-width:1;" x1="657.4873" x2="856.6099" y1="141.5625" y2="141.5625"/><text fill="#000000" font-family="sans-serif" font-size="13" lengthAdjust="spacing" textLength="51.6953" x="664.4873" y="136.4966">create()</text></g><g class="message" data-participant-1="RepositoryManagerFactory" data-participant-2="CatalogPartRepository"><polygon fill="#181818" points="1202.4116,166.6953,1212.4116,170.6953,1202.4116,174.6953,1206.4116,170.6953" style="stroke:#181818;stroke-width:1;"/><line style="stroke:#181818;stroke-width:1;" x1="867.6099" x2="1208.4116" y1="170.6953" y2="170.6953"/><text fill="#000000" font-family="sans-serif" font-size="13" lengthAdjust="spacing" textLength="317.8018" x="874.6099" y="165.6294">find_by_manufacturer_id_manufacturer_part_id()</text></g><g class="message" data-participant-1="PartSharingShortcutService" data-participant-2="User"><polygon fill="#181818" points="49.9551,219.9609,39.9551,223.9609,49.9551,227.9609,45.9551,223.9609" style="stroke:#181818;stroke-width:1;"/><line style="stroke:#181818;stroke-width:1;" x1="43.9551" x2="651.4873" y1="223.9609" y2="223.9609"/><text fill="#000000" font-family="sans-serif" font-size="13" lengthAdjust="spacing" textLength="274.3711" x="55.9551" y="218.895">raise ValueError("Catalog part not found")</text></g><g class="message" data-participant-1="PartSharingShortcutService" data-participant-2="EnablementServiceStackRepository"><polygon fill="#181818" points="1429.9004,263.8984,1439.9004,267.8984,1429.9004,271.8984,1433.9004,267.8984" style="stroke:#181818;stroke-width:1;"/><line style="stroke:#181818;stroke-width:1;" x1="652.4873" x2="1435.9004" y1="267.8984" y2="267.8984"/><text fill="#000000" font-family="sans-serif" font-size="13" lengthAdjust="spacing" textLength="174.3003" x="659.4873" y="262.8325">find_by_legal_entity_bpnl()</text></g><path d="M538.7964,282.8984 L603.2393,282.8984 L603.2393,290.0313 L593.2393,300.0313 L538.7964,300.0313 L538.7964,282.8984" fill="#EEEEEE" style="stroke:#000000;stroke-width:1.5;"/><rect fill="none" height="75.3984" style="stroke:#000000;stroke-width:1.5;" width="1222.7539" x="538.7964" y="282.8984"/><text fill="#000000" font-family="sans-serif" font-size="13" font-weight="bold" lengthAdjust="spacing" textLength="19.4429" x="553.7964" y="295.9653">alt</text><text fill="#000000" font-family="sans-serif" font-size="11" font-weight="bold" lengthAdjust="spacing" textLength="233.2021" x="618.2393" y="295.1089">[Enablement service stack not found]</text><g class="message" data-participant-1="PartSharingShortcutService" data-participant-2="LegalEntityRepository"><polygon fill="#181818" points="1655.6938,317.1641,1665.6938,321.1641,1655.6938,325.1641,1659.6938,321.1641" style="stroke:#181818;stroke-width:1;"/><line style="stroke:#181818;stroke-width:1;" x1="652.4873" x2="1661.6938" y1="321.1641" y2="321.1641"/><text fill="#000000" font-family="sans-serif" font-size="13" lengthAdjust="spacing" textLength="88.791" x="659.4873" y="316.0981">get_by_bpnl()</text></g><g class="message" data-participant-1="PartSharingShortcutService" data-participant-2="EnablementServiceStackRepository"><polygon fill="#181818" points="1429.9004,346.2969,1439.9004,350.2969,1429.9004,354.2969,1433.9004,350.2969" style="stroke:#181818;stroke-width:1;"/><line style="stroke:#181818;stroke-width:1;" x1="652.4873" x2="1435.9004" y1="350.2969" y2="350.2969"/><text fill="#000000" font-family="sans-serif" font-size="13" lengthAdjust="spacing" textLength="51.6953" x="659.4873" y="345.231">create()</text></g><g class="message" data-participant-1="PartSharingShortcutService" data-participant-2="BusinessPartnerRepository"><polygon fill="#181818" points="1850.7085,382.4297,1860.7085,386.4297,1850.7085,390.4297,1854.7085,386.4297" style="stroke:#181818;stroke-width:1;"/><line style="stroke:#181818;stroke-width:1;" x1="652.4873" x2="1856.7085" y1="386.4297" y2="386.4297"/><text fill="#000000" font-family="sans-serif" font-size="13" lengthAdjust="spacing" textLength="88.791" x="659.4873" y="381.3638">get_by_bpnl()</text></g><path d="M538.7964,401.4297 L603.2393,401.4297 L603.2393,408.5625 L593.2393,418.5625 L538.7964,418.5625 L538.7964,401.4297" fill="#EEEEEE" style="stroke:#000000;stroke-width:1.5;"/><rect fill="none" height="46.2656" style="stroke:#000000;stroke-width:1.5;" width="1435.0703" x="538.7964" y="401.4297"/><text fill="#000000" font-family="sans-serif" font-size="13" font-weight="bold" lengthAdjust="spacing" textLength="19.4429" x="553.7964" y="414.4966">alt</text><text fill="#000000" font-family="sans-serif" font-size="11" font-weight="bold" lengthAdjust="spacing" textLength="179.6846" x="618.2393" y="413.6401">[Business partner not found]</text><g class="message" data-participant-1="PartSharingShortcutService" data-participant-2="BusinessPartnerRepository"><polygon fill="#181818" points="1850.7085,435.6953,1860.7085,439.6953,1850.7085,443.6953,1854.7085,439.6953" style="stroke:#181818;stroke-width:1;"/><line style="stroke:#181818;stroke-width:1;" x1="652.4873" x2="1856.7085" y1="439.6953" y2="439.6953"/><text fill="#000000" font-family="sans-serif" font-size="13" lengthAdjust="spacing" textLength="51.6953" x="659.4873" y="434.6294">create()</text></g><!--SRC=[hLFBReCm4Bpp5LPEH6f_W4CFhT9JArL5xTNQm4AiEZQorv7u-teX2Q45aahbmiEpCxEp2nHadVZmw9867Ab2DM18lCNdV0TEcJhVMKT5e1pTGHKuWhrZOxsA3Eqh6AZHFGFpjIFG4n1eMpFbW1yXDWQs6lTeJY8vGV4r0tx16lJ6aA9s1l4Ol3BeFIiQT1Ue9E5EnVt3GeEPA1m2eInwtvAffU-nyTw3qoD8cIRGdO10LjOOrVXZLq5jmyULTNiWPSqwIM8uwX01I_7E7x7jkS1FfjFr838xdBa35fWSLYOgPKgvRUKUJAWYEZXqKfNZzwvjLKOF9Lvt0Vgy6e8hXR4aAXjCcOXuBUV0Oyo40-LHV88Ek77EkdGrJRXQTvGNhXO6W3foZdXkDNLjZOSODU-mn6w9vROnEkqTSYO3Y_17RiyyF_AvRcVoHyb4ZSGMBbJ_exFp-Z4PtXJNx6ywvP6JEHLqKuaLVqvaGV6N_vkMvHi0]--></g></svg>