<svg xmlns="http://www.w3.org/2000/svg" xmlns:xlink="http://www.w3.org/1999/xlink" contentStyleType="text/css" data-diagram-type="SEQUENCE" height="1026px" preserveAspectRatio="none" style="width:3273px;height:1026px;background:#FFFFFF;" version="1.1" viewBox="0 0 3273 1026" width="3273px" zoomAndPan="magnify"><defs/><g><g><title>PartSharingShortcutService</title><rect fill="#FFFFFF" height="111.5313" style="stroke:#181818;stroke-width:1;" width="10" x="647.4873" y="112.4297"/></g><g><title>RepositoryManagerFactory</title><rect fill="#FFFFFF" height="29.1328" style="stroke:#181818;stroke-width:1;" width="10" x="862.6099" y="141.5625"/></g><rect fill="none" height="743.125" style="stroke:#000000;stroke-width:1.5;" width="3256.6108" x="10" y="185.6953"/><rect fill="none" height="75.3984" style="stroke:#000000;stroke-width:1.5;" width="1222.7539" x="538.7964" y="282.8984"/><rect fill="none" height="46.2656" style="stroke:#000000;stroke-width:1.5;" width="1435.0703" x="538.7964" y="401.4297"/><rect fill="none" height="46.2656" style="stroke:#000000;stroke-width:1.5;" width="1714.2832" x="538.7964" y="490.8281"/><rect fill="none" height="46.2656" style="stroke:#000000;stroke-width:1.5;" width="1946.8955" x="538.7964" y="580.2266"/><rect fill="none" height="46.2656" style="stroke:#000000;stroke-width:1.5;" width="2479.9521" x="538.7964" y="727.8906"/><rect fill="none" height="75.3984" style="stroke:#000000;stroke-width:1.5;" width="2717.8145" x="538.7964" y="788.1563"/><g><title>User</title><rect fill="#000000" fill-opacity="0.00000" height="864.5234" width="8" x="34.9551" y="81.2969"/><line style="stroke:#181818;stroke-width:0.5;stroke-dasharray:5.0,5.0;" x1="38" x2="38" y1="81.2969" y2="945.8203"/></g><g><title>PartSharingShortcutService</title><rect fill="#000000" fill-opacity="0.00000" height="864.5234" width="8" x="648.4873" y="81.2969"/><line style="stroke:#181818;stroke-width:0.5;stroke-dasharray:5.0,5.0;" x1="651.7964" x2="651.7964" y1="81.2969" y2="945.8203"/></g><g><title>RepositoryManagerFactory</title><rect fill="#000000" fill-opacity="0.00000" height="864.5234" width="8" x="863.6099" y="81.2969"/><line style="stroke:#181818;stroke-width:0.5;stroke-dasharray:5.0,5.0;" x1="867.1782" x2="867.1782" y1="81.2969" y2="945.8203"/></g><g><title>CatalogPartRepository</title><rect fill="#000000" fill-opacity="0.00000" height="864.5234" width="8" x="1210.4116" y="81.2969"/><line style="stroke:#181818;stroke-width:0.5;stroke-dasharray:5.0,5.0;" x1="1213.8599" x2="1213.8599" y1="81.2969" y2="945.8203"/></g><g><title>EnablementServiceStackRepository</title><rect fill="#000000" fill-opacity="0.00000" height="864.5234" width="8" x="1437.9004" y="81.2969"/><line style="stroke:#181818;stroke-width:0.5;stroke-dasharray:5.0,5.0;" x1="1440.9634" x2="1440.9634" y1="81.2969" y2="945.8203"/></g><g><title>LegalEntityRepository</title><rect fill="#000000" fill-opacity="0.00000" height="864.5234" width="8" x="1663.6938" y="81.2969"/><line style="stroke:#181818;stroke-width:0.5;stroke-dasharray:5.0,5.0;" x1="1666.8374" x2="1666.8374" y1="81.2969" y2="945.8203"/></g><g><title>BusinessPartnerRepository</title><rect fill="#000000" fill-opacity="0.00000" height="864.5234" width="8" x="1858.7085" y="81.2969"/><line style="stroke:#181818;stroke-width:0.5;stroke-dasharray:5.0,5.0;" x1="1862.5503" x2="1862.5503" y1="81.2969" y2="945.8203"/></g><g><title>DataExchangeAgreementRepository</title><rect fill="#000000" fill-opacity="0.00000" height="864.5234" width="8" x="2104.4731" y="81.2969"/><line style="stroke:#181818;stroke-width:0.5;stroke-dasharray:5.0,5.0;" x1="2107.8667" x2="2107.8667" y1="81.2969" y2="945.8203"/></g><g><title>PartnerCatalogPartRepository</title><rect fill="#000000" fill-opacity="0.00000" height="864.5234" width="8" x="2360.3857" y="81.2969"/><line style="stroke:#181818;stroke-width:0.5;stroke-dasharray:5.0,5.0;" x1="2364.0796" x2="2364.0796" y1="81.2969" y2="945.8203"/></g><g><title>TwinManagementService</title><rect fill="#000000" fill-opacity="0.00000" height="864.5234" width="8" x="2577.0566" y="81.2969"/><line style="stroke:#181818;stroke-width:0.5;stroke-dasharray:5.0,5.0;" x1="2580.6919" x2="2580.6919" y1="81.2969" y2="945.8203"/></g><g><title>TwinRepository</title><rect fill="#000000" fill-opacity="0.00000" height="864.5234" width="8" x="2743.3398" y="81.2969"/><line style="stroke:#181818;stroke-width:0.5;stroke-dasharray:5.0,5.0;" x1="2746.4214" x2="2746.4214" y1="81.2969" y2="945.8203"/></g><g><title>TwinExchangeRepository</title><rect fill="#000000" fill-opacity="0.00000" height="864.5234" width="8" x="2909.5034" y="81.2969"/><line style="stroke:#181818;stroke-width:0.5;stroke-dasharray:5.0,5.0;" x1="2913.2583" x2="2913.2583" y1="81.2969" y2="945.8203"/></g><g><title>SubmodelDocumentGenerator</title><rect fill="#000000" fill-opacity="0.00000" height="864.5234" width="8" x="3128.6797" y="81.2969"/><line style="stroke:#181818;stroke-width:0.5;stroke-dasharray:5.0,5.0;" x1="3131.7485" x2="3131.7485" y1="81.2969" y2="945.8203"/></g><g class="participant participant-head" data-participant="User"><text fill="#000000" font-family="sans-serif" font-size="14" lengthAdjust="spacing" textLength="31.9102" x="20" y="77.9951">User</text><ellipse cx="38.9551" cy="13.5" fill="#E2E2F0" rx="8" ry="8" style="stroke:#181818;stroke-width:0.5;"/><path d="M38.9551,21.5 L38.9551,48.5 M25.9551,29.5 L51.9551,29.5 M38.9551,48.5 L25.9551,63.5 M38.9551,48.5 L51.9551,63.5" fill="none" style="stroke:#181818;stroke-width:0.5;"/></g><g class="participant participant-tail" data-participant="User"><text fill="#000000" font-family="sans-serif" font-size="14" lengthAdjust="spacing" textLength="31.9102" x="20" y="957.8154">User</text><ellipse cx="38.9551" cy="969.6172" fill="#E2E2F0" rx="8" ry="8" style="stroke:#181818;stroke-width:0.5;"/><path d="M38.9551,977.6172 L38.9551,1004.6172 M25.9551,985.6172 L51.9551,985.6172 M38.9551,1004.6172 L25.9551,1019.6172 M38.9551,1004.6172 L51.9551,1019.6172" fill="none" style="stroke:#181818;stroke-width:0.5;"/></g><g class="participant participant-head" data-participant="PartSharingShortcutService"><rect fill="#E2E2F0" height="30.2969" rx="2.5" ry="2.5" style="stroke:#181818;stroke-width:0.5;" width="207.3818" x="548.7964" y="50"/><text fill="#000000" font-family="sans-serif" font-size="14" lengthAdjust="spacing" textLength="193.3818" x="555.7964" y="69.9951">PartSharingShortcutService</text></g><g class="participant participant-tail" data-participant="PartSharingShortcutService"><rect fill="#E2E2F0" height="30.2969" rx="2.5" ry="2.5" style="stroke:#181818;stroke-width:0.5;" width="207.3818" x="548.7964" y="944.8203"/><text fill="#000000" font-family="sans-serif" font-size="14" lengthAdjust="spacing" textLength="193.3818" x="555.7964" y="964.8154">PartSharingShortcutService</text></g><g class="participant participant-head" data-participant="RepositoryManagerFactory"><rect fill="#E2E2F0" height="30.2969" rx="2.5" ry="2.5" style="stroke:#181818;stroke-width:0.5;" width="202.8633" x="766.1782" y="50"/><text fill="#000000" font-family="sans-serif" font-size="14" lengthAdjust="spacing" textLength="188.8633" x="773.1782" y="69.9951">RepositoryManagerFactory</text></g><g class="participant participant-tail" data-participant="RepositoryManagerFactory"><rect fill="#E2E2F0" height="30.2969" rx="2.5" ry="2.5" style="stroke:#181818;stroke-width:0.5;" width="202.8633" x="766.1782" y="944.8203"/><text fill="#000000" font-family="sans-serif" font-size="14" lengthAdjust="spacing" textLength="188.8633" x="773.1782" y="964.8154">RepositoryManagerFactory</text></g><g class="participant participant-head" data-participant="CatalogPartRepository"><rect fill="#E2E2F0" height="30.2969" rx="2.5" ry="2.5" style="stroke:#181818;stroke-width:0.5;" width="171.1035" x="1128.8599" y="50"/><text fill="#000000" font-family="sans-serif" font-size="14" lengthAdjust="spacing" textLength="157.1035" x="1135.8599" y="69.9951">CatalogPartRepository</text></g><g class="participant participant-tail" data-participant="CatalogPartRepository"><rect fill="#E2E2F0" height="30.2969" rx="2.5" ry="2.5" style="stroke:#181818;stroke-width:0.5;" width="171.1035" x="1128.8599" y="944.8203"/><text fill="#000000" font-family="sans-serif" font-size="14" lengthAdjust="spacing" textLength="157.1035" x="1135.8599" y="964.8154">CatalogPartRepository</text></g><g class="participant participant-head" data-participant="EnablementServiceStackRepository"><rect fill="#E2E2F0" height="30.2969" rx="2.5" ry="2.5" style="stroke:#181818;stroke-width:0.5;" width="263.874" x="1309.9634" y="50"/><text fill="#000000" font-family="sans-serif" font-size="14" lengthAdjust="spacing" textLength="249.874" x="1316.9634" y="69.9951">EnablementServiceStackRepository</text></g><g class="participant participant-tail" data-participant="EnablementServiceStackRepository"><rect fill="#E2E2F0" height="30.2969" rx="2.5" ry="2.5" style="stroke:#181818;stroke-width:0.5;" width="263.874" x="1309.9634" y="944.8203"/><text fill="#000000" font-family="sans-serif" font-size="14" lengthAdjust="spacing" textLength="249.874" x="1316.9634" y="964.8154">EnablementServiceStackRepository</text></g><g class="participant participant-head" data-participant="LegalEntityRepository"><rect fill="#E2E2F0" height="30.2969" rx="2.5" ry="2.5" style="stroke:#181818;stroke-width:0.5;" width="167.7129" x="1583.8374" y="50"/><text fill="#000000" font-family="sans-serif" font-size="14" lengthAdjust="spacing" textLength="153.7129" x="1590.8374" y="69.9951">LegalEntityRepository</text></g><g class="participant participant-tail" data-participant="LegalEntityRepository"><rect fill="#E2E2F0" height="30.2969" rx="2.5" ry="2.5" style="stroke:#181818;stroke-width:0.5;" width="167.7129" x="1583.8374" y="944.8203"/><text fill="#000000" font-family="sans-serif" font-size="14" lengthAdjust="spacing" textLength="153.7129" x="1590.8374" y="964.8154">LegalEntityRepository</text></g><g class="participant participant-head" data-participant="BusinessPartnerRepository"><rect fill="#E2E2F0" height="30.2969" rx="2.5" ry="2.5" style="stroke:#181818;stroke-width:0.5;" width="202.3164" x="1761.5503" y="50"/><text fill="#000000" font-family="sans-serif" font-size="14" lengthAdjust="spacing" textLength="188.3164" x="1768.5503" y="69.9951">BusinessPartnerRepository</text></g><g class="participant participant-tail" data-participant="BusinessPartnerRepository"><rect fill="#E2E2F0" height="30.2969" rx="2.5" ry="2.5" style="stroke:#181818;stroke-width:0.5;" width="202.3164" x="1761.5503" y="944.8203"/><text fill="#000000" font-family="sans-serif" font-size="14" lengthAdjust="spacing" textLength="188.3164" x="1768.5503" y="964.8154">BusinessPartnerRepository</text></g><g class="participant participant-head" data-participant="DataExchangeAgreementRepository"><rect fill="#E2E2F0" height="30.2969" rx="2.5" ry="2.5" style="stroke:#181818;stroke-width:0.5;" width="269.2129" x="1973.8667" y="50"/><text fill="#000000" font-family="sans-serif" font-size="14" lengthAdjust="spacing" textLength="255.2129" x="1980.8667" y="69.9951">DataExchangeAgreementRepository</text></g><g class="participant participant-tail" data-participant="DataExchangeAgreementRepository"><rect fill="#E2E2F0" height="30.2969" rx="2.5" ry="2.5" style="stroke:#181818;stroke-width:0.5;" width="269.2129" x="1973.8667" y="944.8203"/><text fill="#000000" font-family="sans-serif" font-size="14" lengthAdjust="spacing" textLength="255.2129" x="1980.8667" y="964.8154">DataExchangeAgreementRepository</text></g><g class="participant participant-head" data-participant="PartnerCatalogPartRepository"><rect fill="#E2E2F0" height="30.2969" rx="2.5" ry="2.5" style="stroke:#181818;stroke-width:0.5;" width="222.6123" x="2253.0796" y="50"/><text fill="#000000" font-family="sans-serif" font-size="14" lengthAdjust="spacing" textLength="208.6123" x="2260.0796" y="69.9951">PartnerCatalogPartRepository</text></g><g class="participant participant-tail" data-participant="PartnerCatalogPartRepository"><rect fill="#E2E2F0" height="30.2969" rx="2.5" ry="2.5" style="stroke:#181818;stroke-width:0.5;" width="222.6123" x="2253.0796" y="944.8203"/><text fill="#000000" font-family="sans-serif" font-size="14" lengthAdjust="spacing" textLength="208.6123" x="2260.0796" y="964.8154">PartnerCatalogPartRepository</text></g><g class="participant participant-head" data-participant="TwinManagementService"><rect fill="#E2E2F0" height="30.2969" rx="2.5" ry="2.5" style="stroke:#181818;stroke-width:0.5;" width="190.7295" x="2485.6919" y="50"/><text fill="#000000" font-family="sans-serif" font-size="14" lengthAdjust="spacing" textLength="176.7295" x="2492.6919" y="69.9951">TwinManagementService</text></g><g class="participant participant-tail" data-participant="TwinManagementService"><rect fill="#E2E2F0" height="30.2969" rx="2.5" ry="2.5" style="stroke:#181818;stroke-width:0.5;" width="190.7295" x="2485.6919" y="944.8203"/><text fill="#000000" font-family="sans-serif" font-size="14" lengthAdjust="spacing" textLength="176.7295" x="2492.6919" y="964.8154">TwinManagementService</text></g><g class="participant participant-head" data-participant="TwinRepository"><rect fill="#E2E2F0" height="30.2969" rx="2.5" ry="2.5" style="stroke:#181818;stroke-width:0.5;" width="121.8369" x="2686.4214" y="50"/><text fill="#000000" font-family="sans-serif" font-size="14" lengthAdjust="spacing" textLength="107.8369" x="2693.4214" y="69.9951">TwinRepository</text></g><g class="participant participant-tail" data-participant="TwinRepository"><rect fill="#E2E2F0" height="30.2969" rx="2.5" ry="2.5" style="stroke:#181818;stroke-width:0.5;" width="121.8369" x="2686.4214" y="944.8203"/><text fill="#000000" font-family="sans-serif" font-size="14" lengthAdjust="spacing" textLength="107.8369" x="2693.4214" y="964.8154">TwinRepository</text></g><g class="participant participant-head" data-participant="TwinExchangeRepository"><rect fill="#E2E2F0" height="30.2969" rx="2.5" ry="2.5" style="stroke:#181818;stroke-width:0.5;" width="190.4902" x="2818.2583" y="50"/><text fill="#000000" font-family="sans-serif" font-size="14" lengthAdjust="spacing" textLength="176.4902" x="2825.2583" y="69.9951">TwinExchangeRepository</text></g><g class="participant participant-tail" data-participant="TwinExchangeRepository"><rect fill="#E2E2F0" height="30.2969" rx="2.5" ry="2.5" style="stroke:#181818;stroke-width:0.5;" width="190.4902" x="2818.2583" y="944.8203"/><text fill="#000000" font-family="sans-serif" font-size="14" lengthAdjust="spacing" textLength="176.4902" x="2825.2583" y="964.8154">TwinExchangeRepository</text></g><g class="participant participant-head" data-participant="SubmodelDocumentGenerator"><rect fill="#E2E2F0" height="30.2969" rx="2.5" ry="2.5" style="stroke:#181818;stroke-width:0.5;" width="227.8623" x="3018.7485" y="50"/><text fill="#000000" font-family="sans-serif" font-size="14" lengthAdjust="spacing" textLength="213.8623" x="3025.7485" y="69.9951">SubmodelDocumentGenerator</text></g><g class="participant participant-tail" data-participant="SubmodelDocumentGenerator"><rect fill="#E2E2F0" height="30.2969" rx="2.5" ry="2.5" style="stroke:#181818;stroke-width:0.5;" width="227.8623" x="3018.7485" y="944.8203"/><text fill="#000000" font-family="sans-serif" font-size="14" lengthAdjust="spacing" textLength="213.8623" x="3025.7485" y="964.8154">SubmodelDocumentGenerator</text></g><g><title>PartSharingShortcutService</title><rect fill="#FFFFFF" height="111.5313" style="stroke:#181818;stroke-width:1;" width="10" x="647.4873" y="112.4297"/></g><g><title>RepositoryManagerFactory</title><rect fill="#FFFFFF" height="29.1328" style="stroke:#181818;stroke-width:1;" width="10" x="862.6099" y="141.5625"/></g><g class="message" data-participant-1="User" data-participant-2="PartSharingShortcutService"><polygon fill="#181818" points="635.4873,108.4297,645.4873,112.4297,635.4873,116.4297,639.4873,112.4297" style="stroke:#181818;stroke-width:1;"/><line style="stroke:#181818;stroke-width:1;" x1="38.9551" x2="641.4873" y1="112.4297" y2="112.4297"/><text fill="#000000" font-family="sans-serif" font-size="13" lengthAdjust="spacing" textLength="589.5322" x="45.9551" y="107.3638">create_catalog_part_sharing_shortcut(create_input, auto_generate_part_type_information)</text></g><g class="message" data-participant-1="PartSharingShortcutService" data-participant-2="RepositoryManagerFactory"><polygon fill="#181818" points="850.6099,137.5625,860.6099,141.5625,850.6099,145.5625,854.6099,141.5625" style="stroke:#181818;stroke-width:1;"/><line style="stroke:#181818;stroke-width:1;" x1="657.4873" x2="856.6099" y1="141.5625" y2="141.5625"/><text fill="#000000" font-family="sans-serif" font-size="13" lengthAdjust="spacing" textLength="51.6953" x="664.4873" y="136.4966">create()</text></g><g class="message" data-participant-1="RepositoryManagerFactory" data-participant-2="CatalogPartRepository"><polygon fill="#181818" points="1202.4116,166.6953,1212.4116,170.6953,1202.4116,174.6953,1206.4116,170.6953" style="stroke:#181818;stroke-width:1;"/><line style="stroke:#181818;stroke-width:1;" x1="867.6099" x2="1208.4116" y1="170.6953" y2="170.6953"/><text fill="#000000" font-family="sans-serif" font-size="13" lengthAdjust="spacing" textLength="317.8018" x="874.6099" y="165.6294">find_by_manufacturer_id_manufacturer_part_id()</text></g><path d="M10,185.6953 L74.4429,185.6953 L74.4429,192.8281 L64.4429,202.8281 L10,202.8281 L10,185.6953" fill="#EEEEEE" style="stroke:#000000;stroke-width:1.5;"/><rect fill="none" height="743.125" style="stroke:#000000;stroke-width:1.5;" width="3256.6108" x="10" y="185.6953"/><text fill="#000000" font-family="sans-serif" font-size="13" font-weight="bold" lengthAdjust="spacing" textLength="19.4429" x="25" y="198.7622">alt</text><text fill="#000000" font-family="sans-serif" font-size="11" font-weight="bold" lengthAdjust="spacing" textLength="151.4272" x="89.4429" y="197.9058">[Catalog part not found]</text><g class="message" data-participant-1="PartSharingShortcutService" data-participant-2="User"><polygon fill="#181818" points="49.9551,219.9609,39.9551,223.9609,49.9551,227.9609,45.9551,223.9609" style="stroke:#181818;stroke-width:1;"/><line style="stroke:#181818;stroke-width:1;" x1="43.9551" x2="651.4873" y1="223.9609" y2="223.9609"/><text fill="#000000" font-family="sans-serif" font-size="13" lengthAdjust="spacing" textLength="274.3711" x="55.9551" y="218.895">raise ValueError("Catalog part not found")</text></g><line style="stroke:#000000;stroke-width:1;stroke-dasharray:2.0,2.0;" x1="10" x2="3266.6108" y1="232.9609" y2="232.9609"/><text fill="#000000" font-family="sans-serif" font-size="11" font-weight="bold" lengthAdjust="spacing" textLength="126.9512" x="15" y="243.1714">[Catalog part found]</text><g class="message" data-participant-1="PartSharingShortcutService" data-participant-2="EnablementServiceStackRepository"><polygon fill="#181818" points="1429.9004,263.8984,1439.9004,267.8984,1429.9004,271.8984,1433.9004,267.8984" style="stroke:#181818;stroke-width:1;"/><line style="stroke:#181818;stroke-width:1;" x1="652.4873" x2="1435.9004" y1="267.8984" y2="267.8984"/><text fill="#000000" font-family="sans-serif" font-size="13" lengthAdjust="spacing" textLength="174.3003" x="659.4873" y="262.8325">find_by_legal_entity_bpnl()</text></g><path d="M538.7964,282.8984 L603.2393,282.8984 L603.2393,290.0313 L593.2393,300.0313 L538.7964,300.0313 L538.7964,282.8984" fill="#EEEEEE" style="stroke:#000000;stroke-width:1.5;"/><rect fill="none" height="75.3984" style="stroke:#000000;stroke-width:1.5;" width="1222.7539" x="538.7964" y="282.8984"/><text fill="#000000" font-family="sans-serif" font-size="13" font-weight="bold" lengthAdjust="spacing" textLength="19.4429" x="553.7964" y="295.9653">alt</text><text fill="#000000" font-family="sans-serif" font-size="11" font-weight="bold" lengthAdjust="spacing" textLength="233.2021" x="618.2393" y="295.1089">[Enablement service stack not found]</text><g class="message" data-participant-1="PartSharingShortcutService" data-participant-2="LegalEntityRepository"><polygon fill="#181818" points="1655.6938,317.1641,1665.6938,321.1641,1655.6938,325.1641,1659.6938,321.1641" style="stroke:#181818;stroke-width:1;"/><line style="stroke:#181818;stroke-width:1;" x1="652.4873" x2="1661.6938" y1="321.1641" y2="321.1641"/><text fill="#000000" font-family="sans-serif" font-size="13" lengthAdjust="spacing" textLength="88.791" x="659.4873" y="316.0981">get_by_bpnl()</text></g><g class="message" data-participant-1="PartSharingShortcutService" data-participant-2="EnablementServiceStackRepository"><polygon fill="#181818" points="1429.9004,346.2969,1439.9004,350.2969,1429.9004,354.2969,1433.9004,350.2969" style="stroke:#181818;stroke-width:1;"/><line style="stroke:#181818;stroke-width:1;" x1="652.4873" x2="1435.9004" y1="350.2969" y2="350.2969"/><text fill="#000000" font-family="sans-serif" font-size="13" lengthAdjust="spacing" textLength="51.6953" x="659.4873" y="345.231">create()</text></g><g class="message" data-participant-1="PartSharingShortcutService" data-participant-2="BusinessPartnerRepository"><polygon fill="#181818" points="1850.7085,382.4297,1860.7085,386.4297,1850.7085,390.4297,1854.7085,386.4297" style="stroke:#181818;stroke-width:1;"/><line style="stroke:#181818;stroke-width:1;" x1="652.4873" x2="1856.7085" y1="386.4297" y2="386.4297"/><text fill="#000000" font-family="sans-serif" font-size="13" lengthAdjust="spacing" textLength="88.791" x="659.4873" y="381.3638">get_by_bpnl()</text></g><path d="M538.7964,401.4297 L603.2393,401.4297 L603.2393,408.5625 L593.2393,418.5625 L538.7964,418.5625 L538.7964,401.4297" fill="#EEEEEE" style="stroke:#000000;stroke-width:1.5;"/><rect fill="none" height="46.2656" style="stroke:#000000;stroke-width:1.5;" width="1435.0703" x="538.7964" y="401.4297"/><text fill="#000000" font-family="sans-serif" font-size="13" font-weight="bold" lengthAdjust="spacing" textLength="19.4429" x="553.7964" y="414.4966">alt</text><text fill="#000000" font-family="sans-serif" font-size="11" font-weight="bold" lengthAdjust="spacing" textLength="179.6846" x="618.2393" y="413.6401">[Business partner not found]</text><g class="message" data-participant-1="PartSharingShortcutService" data-participant-2="BusinessPartnerRepository"><polygon fill="#181818" points="1850.7085,435.6953,1860.7085,439.6953,1850.7085,443.6953,1854.7085,439.6953" style="stroke:#181818;stroke-width:1;"/><line style="stroke:#181818;stroke-width:1;" x1="652.4873" x2="1856.7085" y1="439.6953" y2="439.6953"/><text fill="#000000" font-family="sans-serif" font-size="13" lengthAdjust="spacing" textLength="51.6953" x="659.4873" y="434.6294">create()</text></g><g class="message" data-participant-1="PartSharingShortcutService" data-participant-2="DataExchangeAgreementRepository"><polygon fill="#181818" points="2096.4731,471.8281,2106.4731,475.8281,2096.4731,479.8281,2100.4731,475.8281" style="stroke:#181818;stroke-width:1;"/><line style="stroke:#181818;stroke-width:1;" x1="652.4873" x2="2102.4731" y1="475.8281" y2="475.8281"/><text fill="#000000" font-family="sans-serif" font-size="13" lengthAdjust="spacing" textLength="190.2012" x="659.4873" y="470.7622">get_by_business_partner_id()</text></g><path d="M538.7964,490.8281 L603.2393,490.8281 L603.2393,497.9609 L593.2393,507.9609 L538.7964,507.9609 L538.7964,490.8281" fill="#EEEEEE" style="stroke:#000000;stroke-width:1.5;"/><rect fill="none" height="46.2656" style="stroke:#000000;stroke-width:1.5;" width="1714.2832" x="538.7964" y="490.8281"/><text fill="#000000" font-family="sans-serif" font-size="13" font-weight="bold" lengthAdjust="spacing" textLength="19.4429" x="553.7964" y="503.895">alt</text><text fill="#000000" font-family="sans-serif" font-size="11" font-weight="bold" lengthAdjust="spacing" textLength="238.2832" x="618.2393" y="503.0386">[Data exchange agreement not found]</text><g class="message" data-participant-1="PartSharingShortcutService" data-participant-2="DataExchangeAgreementRepository"><polygon fill="#181818" points="2096.4731,525.0938,2106.4731,529.0938,2096.4731,533.0938,2100.4731,529.0938" style="stroke:#181818;stroke-width:1;"/><line style="stroke:#181818;stroke-width:1;" x1="652.4873" x2="2102.4731" y1="529.0938" y2="529.0938"/><text fill="#000000" font-family="sans-serif" font-size="13" lengthAdjust="spacing" textLength="51.6953" x="659.4873" y="524.0278">create()</text></g><g class="message" data-participant-1="PartSharingShortcutService" data-participant-2="PartnerCatalogPartRepository"><polygon fill="#181818" points="2352.3857,561.2266,2362.3857,565.2266,2352.3857,569.2266,2356.3857,565.2266" style="stroke:#181818;stroke-width:1;"/><line style="stroke:#181818;stroke-width:1;" x1="652.4873" x2="2358.3857" y1="565.2266" y2="565.2266"/><text fill="#000000" font-family="sans-serif" font-size="13" lengthAdjust="spacing" textLength="296.2197" x="659.4873" y="560.1606">get_by_catalog_part_id_business_partner_id()</text></g><path d="M538.7964,580.2266 L603.2393,580.2266 L603.2393,587.3594 L593.2393,597.3594 L538.7964,597.3594 L538.7964,580.2266" fill="#EEEEEE" style="stroke:#000000;stroke-width:1.5;"/><rect fill="none" height="46.2656" style="stroke:#000000;stroke-width:1.5;" width="1946.8955" x="538.7964" y="580.2266"/><text fill="#000000" font-family="sans-serif" font-size="13" font-weight="bold" lengthAdjust="spacing" textLength="19.4429" x="553.7964" y="593.2935">alt</text><text fill="#000000" font-family="sans-serif" font-size="11" font-weight="bold" lengthAdjust="spacing" textLength="200.5889" x="618.2393" y="592.437">[Partner catalog part not found]</text><g class="message" data-participant-1="PartSharingShortcutService" data-participant-2="PartnerCatalogPartRepository"><polygon fill="#181818" points="2352.3857,614.4922,2362.3857,618.4922,2352.3857,622.4922,2356.3857,618.4922" style="stroke:#181818;stroke-width:1;"/><line style="stroke:#181818;stroke-width:1;" x1="652.4873" x2="2358.3857" y1="618.4922" y2="618.4922"/><text fill="#000000" font-family="sans-serif" font-size="13" lengthAdjust="spacing" textLength="85.0649" x="659.4873" y="613.4263">create_new()</text></g><g class="message" data-participant-1="PartSharingShortcutService" data-participant-2="TwinManagementService"><polygon fill="#181818" points="2569.0566,650.625,2579.0566,654.625,2569.0566,658.625,2573.0566,654.625" style="stroke:#181818;stroke-width:1;"/><line style="stroke:#181818;stroke-width:1;" x1="652.4873" x2="2575.0566" y1="654.625" y2="654.625"/><text fill="#000000" font-family="sans-serif" font-size="13" lengthAdjust="spacing" textLength="173.4307" x="659.4873" y="649.5591">create_catalog_part_twin()</text></g><g class="message" data-participant-1="PartSharingShortcutService" data-participant-2="TwinRepository"><polygon fill="#181818" points="2735.3398,679.7578,2745.3398,683.7578,2735.3398,687.7578,2739.3398,683.7578" style="stroke:#181818;stroke-width:1;"/><line style="stroke:#181818;stroke-width:1;" x1="652.4873" x2="2741.3398" y1="683.7578" y2="683.7578"/><text fill="#000000" font-family="sans-serif" font-size="13" lengthAdjust="spacing" textLength="121.7798" x="659.4873" y="678.6919">find_by_global_id()</text></g><g class="message" data-participant-1="PartSharingShortcutService" data-participant-2="TwinExchangeRepository"><polygon fill="#181818" points="2901.5034,708.8906,2911.5034,712.8906,2901.5034,716.8906,2905.5034,712.8906" style="stroke:#181818;stroke-width:1;"/><line style="stroke:#181818;stroke-width:1;" x1="652.4873" x2="2907.5034" y1="712.8906" y2="712.8906"/><text fill="#000000" font-family="sans-serif" font-size="13" lengthAdjust="spacing" textLength="308.6167" x="659.4873" y="707.8247">get_by_twin_id_data_exchange_agreement_id()</text></g><path d="M538.7964,727.8906 L603.2393,727.8906 L603.2393,735.0234 L593.2393,745.0234 L538.7964,745.0234 L538.7964,727.8906" fill="#EEEEEE" style="stroke:#000000;stroke-width:1.5;"/><rect fill="none" height="46.2656" style="stroke:#000000;stroke-width:1.5;" width="2479.9521" x="538.7964" y="727.8906"/><text fill="#000000" font-family="sans-serif" font-size="13" font-weight="bold" lengthAdjust="spacing" textLength="19.4429" x="553.7964" y="740.9575">alt</text><text fill="#000000" font-family="sans-serif" font-size="11" font-weight="bold" lengthAdjust="spacing" textLength="166.8315" x="618.2393" y="740.1011">[Twin exchange not found]</text><g class="message" data-participant-1="PartSharingShortcutService" data-participant-2="TwinExchangeRepository"><polygon fill="#181818" points="2901.5034,762.1563,2911.5034,766.1563,2901.5034,770.1563,2905.5034,766.1563" style="stroke:#181818;stroke-width:1;"/><line style="stroke:#181818;stroke-width:1;" x1="652.4873" x2="2907.5034" y1="766.1563" y2="766.1563"/><text fill="#000000" font-family="sans-serif" font-size="13" lengthAdjust="spacing" textLength="85.0649" x="659.4873" y="761.0903">create_new()</text></g><path d="M538.7964,788.1563 L603.2393,788.1563 L603.2393,795.2891 L593.2393,805.2891 L538.7964,805.2891 L538.7964,788.1563" fill="#EEEEEE" style="stroke:#000000;stroke-width:1.5;"/><rect fill="none" height="75.3984" style="stroke:#000000;stroke-width:1.5;" width="2717.8145" x="538.7964" y="788.1563"/><text fill="#000000" font-family="sans-serif" font-size="13" font-weight="bold" lengthAdjust="spacing" textLength="19.4429" x="553.7964" y="801.2231">alt</text><text fill="#000000" font-family="sans-serif" font-size="11" font-weight="bold" lengthAdjust="spacing" textLength="288.9272" x="618.2393" y="800.3667">[auto_generate_part_type_information is True]</text><g class="message" data-participant-1="PartSharingShortcutService" data-participant-2="SubmodelDocumentGenerator"><polygon fill="#181818" points="3120.6797,822.4219,3130.6797,826.4219,3120.6797,830.4219,3124.6797,826.4219" style="stroke:#181818;stroke-width:1;"/><line style="stroke:#181818;stroke-width:1;" x1="652.4873" x2="3126.6797" y1="826.4219" y2="826.4219"/><text fill="#000000" font-family="sans-serif" font-size="13" lengthAdjust="spacing" textLength="241.96" x="659.4873" y="821.356">generate_part_type_information_v1()</text></g><g class="message" data-participant-1="PartSharingShortcutService" data-participant-2="TwinManagementService"><polygon fill="#181818" points="2569.0566,851.5547,2579.0566,855.5547,2569.0566,859.5547,2573.0566,855.5547" style="stroke:#181818;stroke-width:1;"/><line style="stroke:#181818;stroke-width:1;" x1="652.4873" x2="2575.0566" y1="855.5547" y2="855.5547"/><text fill="#000000" font-family="sans-serif" font-size="13" lengthAdjust="spacing" textLength="135.5098" x="659.4873" y="850.4888">create_twin_aspect()</text></g><g class="message" data-participant-1="PartSharingShortcutService" data-participant-2="TwinManagementService"><polygon fill="#181818" points="2569.0566,887.6875,2579.0566,891.6875,2569.0566,895.6875,2573.0566,891.6875" style="stroke:#181818;stroke-width:1;"/><line style="stroke:#181818;stroke-width:1;" x1="652.4873" x2="2575.0566" y1="891.6875" y2="891.6875"/><text fill="#000000" font-family="sans-serif" font-size="13" lengthAdjust="spacing" textLength="203.0361" x="659.4873" y="886.6216">get_catalog_part_twin_details()</text></g><g class="message" data-participant-1="PartSharingShortcutService" data-participant-2="User"><polygon fill="#181818" points="49.9551,916.8203,39.9551,920.8203,49.9551,924.8203,45.9551,920.8203" style="stroke:#181818;stroke-width:1;"/><line style="stroke:#181818;stroke-width:1;" x1="43.9551" x2="651.4873" y1="920.8203" y2="920.8203"/><text fill="#000000" font-family="sans-serif" font-size="13" lengthAdjust="spacing" textLength="229.3091" x="55.9551" y="915.7544">return CatalogPartTwinDetailsRead</text></g><!--SRC=[hLLDZzCm4BtdLrXxQYKuSEq12MYN2qXeit2rfiaqjN3jo1zT-k_nvBEXSP8ksqjR-VdDcpVZ6SYSDkodHPEKO9p8H0dAiH_XTte48rIH7hLncNSfchF8S01xmb9R4HWktq51WUOHYEyo07q11r8NHDdZ1uYTWht44wesIEeW-nq1VyC2v4uvuIuHn6TlXK9hAQ924q5jWwpTd-m8gi1FXS4gVWJRCCrdylmYL6t5LJOtY8dBhQ889FNxayvHRdNcAS9N3B8Wm9A4QiZUVvmetOPb1i4Xp-eyE35pMsF3TmrUDI2XIk_UCV1Eyw8EW_KDTodf-A3D2PpGQfqaeUpY701JZHC_8jcnLcf5hzPza6ZRnGuem6ZnDkmWLCxt5tu2vGy1xGqQBlBX_ofjaGSDESwh0DarFQERJ6d73jghF67XC-q3bN7330YBx1T8ZpjZj5azZ1C-h2lAArKJ1K0PE0SyIqNDFT3UHaclasFrFFc-L79LAoHFUXPc6svBFF_uCozdT0HiM86E95n5VOlCklOZCbnaLtG0ZMaaPzeBLLN2ZRiTcOZu2lqpex7FeedA6zdr4scJ8XQ63Gs3bkVkt6RLl2B3gO7UfJSOas4aJAVRKB8i_lB_LrSpcHM-t9Niw58QNmOkG1lkUSwnzrz8lGy3e7DcdkLsutK583LaV1uayhQJUDT9G_-9gs-tUusFAObQJY4Nx4OcB7is7XVAYEvtycGg3Zz_M3ppflkXCXriYPbxYowZKjwq6C_HWP1sKPCq6n73AbRNMvm2RckU9uGy8PcB5k5V]--></g></svg>