<svg xmlns="http://www.w3.org/2000/svg" xmlns:xlink="http://www.w3.org/1999/xlink" contentStyleType="text/css" data-diagram-type="SEQUENCE" height="795px" preserveAspectRatio="none" style="width:1541px;height:795px;background:#FFFFFF;" version="1.1" viewBox="0 0 1541 795" width="1541px" zoomAndPan="magnify"><defs/><g><g><title>ProductsList</title><rect fill="#FFFFFF" height="584.6563" style="stroke:#181818;stroke-width:1;" width="10" x="184.4258" y="112.4297"/></g><g><title>useEffect</title><rect fill="#FFFFFF" height="58.2656" style="stroke:#181818;stroke-width:1;" width="10" x="764.6157" y="199.8281"/></g><g><title>useMemo</title><rect fill="#FFFFFF" height="29.1328" style="stroke:#181818;stroke-width:1;" width="10" x="855.0952" y="667.9531"/></g><g><title>ProductCard</title><rect fill="#FFFFFF" height="58.2656" style="stroke:#181818;stroke-width:1;" width="10" x="1041.4819" y="374.625"/></g><rect fill="none" height="133.6641" style="stroke:#000000;stroke-width:1.5;" width="1283.6323" x="10" y="506.1563"/><g><title>User</title><rect fill="#000000" fill-opacity="0.00000" height="633.7891" width="8" x="34.9551" y="81.2969"/><line style="stroke:#181818;stroke-width:0.5;stroke-dasharray:5.0,5.0;" x1="38" x2="38" y1="81.2969" y2="715.0859"/></g><g><title>ProductsList</title><rect fill="#000000" fill-opacity="0.00000" height="633.7891" width="8" x="185.4258" y="81.2969"/><line style="stroke:#181818;stroke-width:0.5;stroke-dasharray:5.0,5.0;" x1="188.6875" x2="188.6875" y1="81.2969" y2="715.0859"/></g><g><title>useState</title><rect fill="#000000" fill-opacity="0.00000" height="633.7891" width="8" x="533.7764" y="81.2969"/><line style="stroke:#181818;stroke-width:0.5;stroke-dasharray:5.0,5.0;" x1="536.8574" x2="536.8574" y1="81.2969" y2="715.0859"/></g><g><title>useEffect</title><rect fill="#000000" fill-opacity="0.00000" height="633.7891" width="8" x="765.6157" y="81.2969"/><line style="stroke:#181818;stroke-width:0.5;stroke-dasharray:5.0,5.0;" x1="768.9741" x2="768.9741" y1="81.2969" y2="715.0859"/></g><g><title>useMemo</title><rect fill="#000000" fill-opacity="0.00000" height="633.7891" width="8" x="856.0952" y="81.2969"/><line style="stroke:#181818;stroke-width:0.5;stroke-dasharray:5.0,5.0;" x1="859.2573" x2="859.2573" y1="81.2969" y2="715.0859"/></g><g><title>navigate</title><rect fill="#000000" fill-opacity="0.00000" height="633.7891" width="8" x="944.5308" y="81.2969"/><line style="stroke:#181818;stroke-width:0.5;stroke-dasharray:5.0,5.0;" x1="947.9331" x2="947.9331" y1="81.2969" y2="715.0859"/></g><g><title>ProductCard</title><rect fill="#000000" fill-opacity="0.00000" height="633.7891" width="8" x="1042.4819" y="81.2969"/><line style="stroke:#181818;stroke-width:0.5;stroke-dasharray:5.0,5.0;" x1="1046.1284" x2="1046.1284" y1="81.2969" y2="715.0859"/></g><g><title>Sidebar</title><rect fill="#000000" fill-opacity="0.00000" height="633.7891" width="8" x="1136.5845" y="81.2969"/><line style="stroke:#181818;stroke-width:0.5;stroke-dasharray:5.0,5.0;" x1="1139.8354" x2="1139.8354" y1="81.2969" y2="715.0859"/></g><g><title>ShareDialog</title><rect fill="#000000" fill-opacity="0.00000" height="633.7891" width="8" x="1229.9829" y="81.2969"/><line style="stroke:#181818;stroke-width:0.5;stroke-dasharray:5.0,5.0;" x1="1233.3335" x2="1233.3335" y1="81.2969" y2="715.0859"/></g><g><title>TablePagination</title><rect fill="#000000" fill-opacity="0.00000" height="633.7891" width="8" x="1352.9263" y="81.2969"/><line style="stroke:#181818;stroke-width:0.5;stroke-dasharray:5.0,5.0;" x1="1356.6323" x2="1356.6323" y1="81.2969" y2="715.0859"/></g><g><title>carPartsData</title><rect fill="#000000" fill-opacity="0.00000" height="633.7891" width="8" x="1478.7305" y="81.2969"/><line style="stroke:#181818;stroke-width:0.5;stroke-dasharray:5.0,5.0;" x1="1482.2202" x2="1482.2202" y1="81.2969" y2="715.0859"/></g><g class="participant participant-head" data-participant="User"><text fill="#000000" font-family="sans-serif" font-size="14" lengthAdjust="spacing" textLength="31.9102" x="20" y="77.9951">User</text><ellipse cx="38.9551" cy="13.5" fill="#E2E2F0" rx="8" ry="8" style="stroke:#181818;stroke-width:0.5;"/><path d="M38.9551,21.5 L38.9551,48.5 M25.9551,29.5 L51.9551,29.5 M38.9551,48.5 L25.9551,63.5 M38.9551,48.5 L51.9551,63.5" fill="none" style="stroke:#181818;stroke-width:0.5;"/></g><g class="participant participant-tail" data-participant="User"><text fill="#000000" font-family="sans-serif" font-size="14" lengthAdjust="spacing" textLength="31.9102" x="20" y="727.0811">User</text><ellipse cx="38.9551" cy="738.8828" fill="#E2E2F0" rx="8" ry="8" style="stroke:#181818;stroke-width:0.5;"/><path d="M38.9551,746.8828 L38.9551,773.8828 M25.9551,754.8828 L51.9551,754.8828 M38.9551,773.8828 L25.9551,788.8828 M38.9551,773.8828 L51.9551,788.8828" fill="none" style="stroke:#181818;stroke-width:0.5;"/></g><g class="participant participant-head" data-participant="ProductsList"><rect fill="#E2E2F0" height="30.2969" rx="2.5" ry="2.5" style="stroke:#181818;stroke-width:0.5;" width="99.4766" x="139.6875" y="50"/><text fill="#000000" font-family="sans-serif" font-size="14" lengthAdjust="spacing" textLength="85.4766" x="146.6875" y="69.9951">ProductsList</text></g><g class="participant participant-tail" data-participant="ProductsList"><rect fill="#E2E2F0" height="30.2969" rx="2.5" ry="2.5" style="stroke:#181818;stroke-width:0.5;" width="99.4766" x="139.6875" y="714.0859"/><text fill="#000000" font-family="sans-serif" font-size="14" lengthAdjust="spacing" textLength="85.4766" x="146.6875" y="734.0811">ProductsList</text></g><g class="participant participant-head" data-participant="useState"><rect fill="#E2E2F0" height="30.2969" rx="2.5" ry="2.5" style="stroke:#181818;stroke-width:0.5;" width="75.8379" x="499.8574" y="50"/><text fill="#000000" font-family="sans-serif" font-size="14" lengthAdjust="spacing" textLength="61.8379" x="506.8574" y="69.9951">useState</text></g><g class="participant participant-tail" data-participant="useState"><rect fill="#E2E2F0" height="30.2969" rx="2.5" ry="2.5" style="stroke:#181818;stroke-width:0.5;" width="75.8379" x="499.8574" y="714.0859"/><text fill="#000000" font-family="sans-serif" font-size="14" lengthAdjust="spacing" textLength="61.8379" x="506.8574" y="734.0811">useState</text></g><g class="participant participant-head" data-participant="useEffect"><rect fill="#E2E2F0" height="30.2969" rx="2.5" ry="2.5" style="stroke:#181818;stroke-width:0.5;" width="79.2832" x="729.9741" y="50"/><text fill="#000000" font-family="sans-serif" font-size="14" lengthAdjust="spacing" textLength="65.2832" x="736.9741" y="69.9951">useEffect</text></g><g class="participant participant-tail" data-participant="useEffect"><rect fill="#E2E2F0" height="30.2969" rx="2.5" ry="2.5" style="stroke:#181818;stroke-width:0.5;" width="79.2832" x="729.9741" y="714.0859"/><text fill="#000000" font-family="sans-serif" font-size="14" lengthAdjust="spacing" textLength="65.2832" x="736.9741" y="734.0811">useEffect</text></g><g class="participant participant-head" data-participant="useMemo"><rect fill="#E2E2F0" height="30.2969" rx="2.5" ry="2.5" style="stroke:#181818;stroke-width:0.5;" width="81.6758" x="819.2573" y="50"/><text fill="#000000" font-family="sans-serif" font-size="14" lengthAdjust="spacing" textLength="67.6758" x="826.2573" y="69.9951">useMemo</text></g><g class="participant participant-tail" data-participant="useMemo"><rect fill="#E2E2F0" height="30.2969" rx="2.5" ry="2.5" style="stroke:#181818;stroke-width:0.5;" width="81.6758" x="819.2573" y="714.0859"/><text fill="#000000" font-family="sans-serif" font-size="14" lengthAdjust="spacing" textLength="67.6758" x="826.2573" y="734.0811">useMemo</text></g><g class="participant participant-head" data-participant="useNavigate"><rect fill="#E2E2F0" height="30.2969" rx="2.5" ry="2.5" style="stroke:#181818;stroke-width:0.5;" width="75.1953" x="910.9331" y="50"/><text fill="#000000" font-family="sans-serif" font-size="14" lengthAdjust="spacing" textLength="61.1953" x="917.9331" y="69.9951">navigate</text></g><g class="participant participant-tail" data-participant="useNavigate"><rect fill="#E2E2F0" height="30.2969" rx="2.5" ry="2.5" style="stroke:#181818;stroke-width:0.5;" width="75.1953" x="910.9331" y="714.0859"/><text fill="#000000" font-family="sans-serif" font-size="14" lengthAdjust="spacing" textLength="61.1953" x="917.9331" y="734.0811">navigate</text></g><g class="participant participant-head" data-participant="ProductCard"><rect fill="#E2E2F0" height="30.2969" rx="2.5" ry="2.5" style="stroke:#181818;stroke-width:0.5;" width="100.707" x="996.1284" y="50"/><text fill="#000000" font-family="sans-serif" font-size="14" lengthAdjust="spacing" textLength="86.707" x="1003.1284" y="69.9951">ProductCard</text></g><g class="participant participant-tail" data-participant="ProductCard"><rect fill="#E2E2F0" height="30.2969" rx="2.5" ry="2.5" style="stroke:#181818;stroke-width:0.5;" width="100.707" x="996.1284" y="714.0859"/><text fill="#000000" font-family="sans-serif" font-size="14" lengthAdjust="spacing" textLength="86.707" x="1003.1284" y="734.0811">ProductCard</text></g><g class="participant participant-head" data-participant="Sidebar"><rect fill="#E2E2F0" height="30.2969" rx="2.5" ry="2.5" style="stroke:#181818;stroke-width:0.5;" width="67.498" x="1106.8354" y="50"/><text fill="#000000" font-family="sans-serif" font-size="14" lengthAdjust="spacing" textLength="53.498" x="1113.8354" y="69.9951">Sidebar</text></g><g class="participant participant-tail" data-participant="Sidebar"><rect fill="#E2E2F0" height="30.2969" rx="2.5" ry="2.5" style="stroke:#181818;stroke-width:0.5;" width="67.498" x="1106.8354" y="714.0859"/><text fill="#000000" font-family="sans-serif" font-size="14" lengthAdjust="spacing" textLength="53.498" x="1113.8354" y="734.0811">Sidebar</text></g><g class="participant participant-head" data-participant="ShareDialog"><rect fill="#E2E2F0" height="30.2969" rx="2.5" ry="2.5" style="stroke:#181818;stroke-width:0.5;" width="99.2988" x="1184.3335" y="50"/><text fill="#000000" font-family="sans-serif" font-size="14" lengthAdjust="spacing" textLength="85.2988" x="1191.3335" y="69.9951">ShareDialog</text></g><g class="participant participant-tail" data-participant="ShareDialog"><rect fill="#E2E2F0" height="30.2969" rx="2.5" ry="2.5" style="stroke:#181818;stroke-width:0.5;" width="99.2988" x="1184.3335" y="714.0859"/><text fill="#000000" font-family="sans-serif" font-size="14" lengthAdjust="spacing" textLength="85.2988" x="1191.3335" y="734.0811">ShareDialog</text></g><g class="participant participant-head" data-participant="TablePagination"><rect fill="#E2E2F0" height="30.2969" rx="2.5" ry="2.5" style="stroke:#181818;stroke-width:0.5;" width="126.5879" x="1293.6323" y="50"/><text fill="#000000" font-family="sans-serif" font-size="14" lengthAdjust="spacing" textLength="112.5879" x="1300.6323" y="69.9951">TablePagination</text></g><g class="participant participant-tail" data-participant="TablePagination"><rect fill="#E2E2F0" height="30.2969" rx="2.5" ry="2.5" style="stroke:#181818;stroke-width:0.5;" width="126.5879" x="1293.6323" y="714.0859"/><text fill="#000000" font-family="sans-serif" font-size="14" lengthAdjust="spacing" textLength="112.5879" x="1300.6323" y="734.0811">TablePagination</text></g><g class="participant participant-head" data-participant="carPartsData"><rect fill="#E2E2F0" height="30.2969" rx="2.5" ry="2.5" style="stroke:#181818;stroke-width:0.5;" width="105.0205" x="1430.2202" y="50"/><text fill="#000000" font-family="sans-serif" font-size="14" lengthAdjust="spacing" textLength="91.0205" x="1437.2202" y="69.9951">carPartsData</text></g><g class="participant participant-tail" data-participant="carPartsData"><rect fill="#E2E2F0" height="30.2969" rx="2.5" ry="2.5" style="stroke:#181818;stroke-width:0.5;" width="105.0205" x="1430.2202" y="714.0859"/><text fill="#000000" font-family="sans-serif" font-size="14" lengthAdjust="spacing" textLength="91.0205" x="1437.2202" y="734.0811">carPartsData</text></g><g><title>ProductsList</title><rect fill="#FFFFFF" height="584.6563" style="stroke:#181818;stroke-width:1;" width="10" x="184.4258" y="112.4297"/></g><g><title>useEffect</title><rect fill="#FFFFFF" height="58.2656" style="stroke:#181818;stroke-width:1;" width="10" x="764.6157" y="199.8281"/></g><g><title>useMemo</title><rect fill="#FFFFFF" height="29.1328" style="stroke:#181818;stroke-width:1;" width="10" x="855.0952" y="667.9531"/></g><g><title>ProductCard</title><rect fill="#FFFFFF" height="58.2656" style="stroke:#181818;stroke-width:1;" width="10" x="1041.4819" y="374.625"/></g><g class="message" data-participant-1="User" data-participant-2="ProductsList"><polygon fill="#181818" points="172.4258,108.4297,182.4258,112.4297,172.4258,116.4297,176.4258,112.4297" style="stroke:#181818;stroke-width:1;"/><line style="stroke:#181818;stroke-width:1;" x1="38.9551" x2="178.4258" y1="112.4297" y2="112.4297"/><text fill="#000000" font-family="sans-serif" font-size="13" lengthAdjust="spacing" textLength="126.4707" x="45.9551" y="107.3638">Render Component</text></g><g class="message" data-participant-1="ProductsList" data-participant-2="useState"><polygon fill="#181818" points="525.7764,137.5625,535.7764,141.5625,525.7764,145.5625,529.7764,141.5625" style="stroke:#181818;stroke-width:1;"/><line style="stroke:#181818;stroke-width:1;" x1="194.4258" x2="531.7764" y1="141.5625" y2="141.5625"/><text fill="#000000" font-family="sans-serif" font-size="13" lengthAdjust="spacing" textLength="319.3506" x="201.4258" y="136.4966">Initialize states (carParts, shareDialogOpen, etc.)</text></g><g class="message" data-participant-1="ProductsList" data-participant-2="useNavigate"><polygon fill="#181818" points="936.5308,166.6953,946.5308,170.6953,936.5308,174.6953,940.5308,170.6953" style="stroke:#181818;stroke-width:1;"/><line style="stroke:#181818;stroke-width:1;" x1="194.4258" x2="942.5308" y1="170.6953" y2="170.6953"/><text fill="#000000" font-family="sans-serif" font-size="13" lengthAdjust="spacing" textLength="115.3623" x="201.4258" y="165.6294">Initialize navigate</text></g><g class="message" data-participant-1="ProductsList" data-participant-2="useEffect"><polygon fill="#181818" points="752.6157,195.8281,762.6157,199.8281,752.6157,203.8281,756.6157,199.8281" style="stroke:#181818;stroke-width:1;"/><line style="stroke:#181818;stroke-width:1;" x1="194.4258" x2="758.6157" y1="199.8281" y2="199.8281"/><text fill="#000000" font-family="sans-serif" font-size="13" lengthAdjust="spacing" textLength="131.5298" x="201.4258" y="194.7622">Fetch car parts data</text></g><g class="message" data-participant-1="useEffect" data-participant-2="carPartsData"><polygon fill="#181818" points="1470.7305,224.9609,1480.7305,228.9609,1470.7305,232.9609,1474.7305,228.9609" style="stroke:#181818;stroke-width:1;"/><line style="stroke:#181818;stroke-width:1;" x1="774.6157" x2="1476.7305" y1="228.9609" y2="228.9609"/><text fill="#000000" font-family="sans-serif" font-size="13" lengthAdjust="spacing" textLength="116.2256" x="781.6157" y="223.895">Load sample data</text></g><g class="message" data-participant-1="useEffect" data-participant-2="useState"><polygon fill="#181818" points="548.7764,254.0938,538.7764,258.0938,548.7764,262.0938,544.7764,258.0938" style="stroke:#181818;stroke-width:1;"/><line style="stroke:#181818;stroke-width:1;" x1="542.7764" x2="768.6157" y1="258.0938" y2="258.0938"/><text fill="#000000" font-family="sans-serif" font-size="13" lengthAdjust="spacing" textLength="202.8394" x="554.7764" y="253.0278">Set carParts and initialCarParts</text></g><g class="message" data-participant-1="User" data-participant-2="Sidebar"><polygon fill="#181818" points="1128.5845,283.2266,1138.5845,287.2266,1128.5845,291.2266,1132.5845,287.2266" style="stroke:#181818;stroke-width:1;"/><line style="stroke:#181818;stroke-width:1;" x1="38.9551" x2="1134.5845" y1="287.2266" y2="287.2266"/><text fill="#000000" font-family="sans-serif" font-size="13" lengthAdjust="spacing" textLength="182.3999" x="45.9551" y="282.1606">Toggle Sidebar (open/close)</text></g><g class="message" data-participant-1="ProductsList" data-participant-2="Sidebar"><polygon fill="#181818" points="1128.5845,312.3594,1138.5845,316.3594,1128.5845,320.3594,1132.5845,316.3594" style="stroke:#181818;stroke-width:1;"/><line style="stroke:#181818;stroke-width:1;" x1="194.4258" x2="1134.5845" y1="316.3594" y2="316.3594"/><text fill="#000000" font-family="sans-serif" font-size="13" lengthAdjust="spacing" textLength="100.6738" x="201.4258" y="311.2935">Render Sidebar</text></g><g class="message" data-participant-1="User" data-participant-2="ProductCard"><polygon fill="#181818" points="1034.4819,341.4922,1044.4819,345.4922,1034.4819,349.4922,1038.4819,345.4922" style="stroke:#181818;stroke-width:1;"/><line style="stroke:#181818;stroke-width:1;" x1="38.9551" x2="1040.4819" y1="345.4922" y2="345.4922"/><text fill="#000000" font-family="sans-serif" font-size="13" lengthAdjust="spacing" textLength="350.3716" x="45.9551" y="340.4263">Interact with product card (onClick, onShare, onMore)</text></g><g class="message" data-participant-1="ProductsList" data-participant-2="ProductCard"><polygon fill="#181818" points="1029.4819,370.625,1039.4819,374.625,1029.4819,378.625,1033.4819,374.625" style="stroke:#181818;stroke-width:1;"/><line style="stroke:#181818;stroke-width:1;" x1="194.4258" x2="1035.4819" y1="374.625" y2="374.625"/><text fill="#000000" font-family="sans-serif" font-size="13" lengthAdjust="spacing" textLength="168.5747" x="201.4258" y="369.5591">Pass visibleRows as items</text></g><g class="message" data-participant-1="ProductCard" data-participant-2="ProductsList"><polygon fill="#181818" points="205.4258,399.7578,195.4258,403.7578,205.4258,407.7578,201.4258,403.7578" style="stroke:#181818;stroke-width:1;"/><line style="stroke:#181818;stroke-width:1;" x1="199.4258" x2="1040.4819" y1="403.7578" y2="403.7578"/><text fill="#000000" font-family="sans-serif" font-size="13" lengthAdjust="spacing" textLength="231.1499" x="211.4258" y="398.6919">Trigger onClick (handleButtonClick)</text></g><g class="message" data-participant-1="ProductsList" data-participant-2="useNavigate"><polygon fill="#181818" points="936.5308,428.8906,946.5308,432.8906,936.5308,436.8906,940.5308,432.8906" style="stroke:#181818;stroke-width:1;"/><line style="stroke:#181818;stroke-width:1;" x1="194.4258" x2="942.5308" y1="432.8906" y2="432.8906"/><text fill="#000000" font-family="sans-serif" font-size="13" lengthAdjust="spacing" textLength="177.3535" x="201.4258" y="427.8247">Navigate to product details</text></g><g class="message" data-participant-1="User" data-participant-2="TablePagination"><polygon fill="#181818" points="1344.9263,458.0234,1354.9263,462.0234,1344.9263,466.0234,1348.9263,462.0234" style="stroke:#181818;stroke-width:1;"/><line style="stroke:#181818;stroke-width:1;" x1="38.9551" x2="1350.9263" y1="462.0234" y2="462.0234"/><text fill="#000000" font-family="sans-serif" font-size="13" lengthAdjust="spacing" textLength="86.3726" x="45.9551" y="456.9575">Change page</text></g><g class="message" data-participant-1="ProductsList" data-participant-2="useState"><polygon fill="#181818" points="525.7764,487.1563,535.7764,491.1563,525.7764,495.1563,529.7764,491.1563" style="stroke:#181818;stroke-width:1;"/><line style="stroke:#181818;stroke-width:1;" x1="194.4258" x2="531.7764" y1="491.1563" y2="491.1563"/><text fill="#000000" font-family="sans-serif" font-size="13" lengthAdjust="spacing" textLength="120.7451" x="201.4258" y="486.0903">Update page state</text></g><path d="M10,506.1563 L74.4429,506.1563 L74.4429,513.2891 L64.4429,523.2891 L10,523.2891 L10,506.1563" fill="#EEEEEE" style="stroke:#000000;stroke-width:1.5;"/><rect fill="none" height="133.6641" style="stroke:#000000;stroke-width:1.5;" width="1283.6323" x="10" y="506.1563"/><text fill="#000000" font-family="sans-serif" font-size="13" font-weight="bold" lengthAdjust="spacing" textLength="19.4429" x="25" y="519.2231">alt</text><text fill="#000000" font-family="sans-serif" font-size="11" font-weight="bold" lengthAdjust="spacing" textLength="150.4658" x="89.4429" y="518.3667">[Share dialog triggered]</text><g class="message" data-participant-1="ProductCard" data-participant-2="ProductsList"><polygon fill="#181818" points="205.4258,540.4219,195.4258,544.4219,205.4258,548.4219,201.4258,544.4219" style="stroke:#181818;stroke-width:1;"/><line style="stroke:#181818;stroke-width:1;" x1="199.4258" x2="1045.4819" y1="544.4219" y2="544.4219"/><text fill="#000000" font-family="sans-serif" font-size="13" lengthAdjust="spacing" textLength="242.6582" x="211.4258" y="539.356">Trigger onShare (handleShareDialog)</text></g><g class="message" data-participant-1="ProductsList" data-participant-2="ShareDialog"><polygon fill="#181818" points="1221.9829,569.5547,1231.9829,573.5547,1221.9829,577.5547,1225.9829,573.5547" style="stroke:#181818;stroke-width:1;"/><line style="stroke:#181818;stroke-width:1;" x1="194.4258" x2="1227.9829" y1="573.5547" y2="573.5547"/><text fill="#000000" font-family="sans-serif" font-size="13" lengthAdjust="spacing" textLength="239.5732" x="201.4258" y="568.4888">Open ShareDialog with selected part</text></g><g class="message" data-participant-1="User" data-participant-2="ShareDialog"><polygon fill="#181818" points="1221.9829,598.6875,1231.9829,602.6875,1221.9829,606.6875,1225.9829,602.6875" style="stroke:#181818;stroke-width:1;"/><line style="stroke:#181818;stroke-width:1;" x1="38.9551" x2="1227.9829" y1="602.6875" y2="602.6875"/><text fill="#000000" font-family="sans-serif" font-size="13" lengthAdjust="spacing" textLength="165.7754" x="45.9551" y="597.6216">Interact with ShareDialog</text></g><g class="message" data-participant-1="ProductsList" data-participant-2="ShareDialog"><polygon fill="#181818" points="1221.9829,627.8203,1231.9829,631.8203,1221.9829,635.8203,1225.9829,631.8203" style="stroke:#181818;stroke-width:1;"/><line style="stroke:#181818;stroke-width:1;" x1="194.4258" x2="1227.9829" y1="631.8203" y2="631.8203"/><text fill="#000000" font-family="sans-serif" font-size="13" lengthAdjust="spacing" textLength="118.752" x="201.4258" y="626.7544">Close ShareDialog</text></g><g class="message" data-participant-1="ProductsList" data-participant-2="useMemo"><polygon fill="#181818" points="843.0952,663.9531,853.0952,667.9531,843.0952,671.9531,847.0952,667.9531" style="stroke:#181818;stroke-width:1;"/><line style="stroke:#181818;stroke-width:1;" x1="194.4258" x2="849.0952" y1="667.9531" y2="667.9531"/><text fill="#000000" font-family="sans-serif" font-size="13" lengthAdjust="spacing" textLength="140.791" x="201.4258" y="662.8872">Calculate visibleRows</text></g><g class="message" data-participant-1="useMemo" data-participant-2="useState"><polygon fill="#181818" points="548.7764,693.0859,538.7764,697.0859,548.7764,701.0859,544.7764,697.0859" style="stroke:#181818;stroke-width:1;"/><line style="stroke:#181818;stroke-width:1;" x1="542.7764" x2="859.0952" y1="697.0859" y2="697.0859"/><text fill="#000000" font-family="sans-serif" font-size="13" lengthAdjust="spacing" textLength="167.5337" x="554.7764" y="692.02">Access carParts and page</text></g><!--SRC=[ZLJRRjim37ttL_0n1RBjtGy3DdS31hHRqAGVm4gi8qoH38b9WNtzA5k-A37MvIKIpSlXuQ5GiG_m72bK7GOsodJe67R1wxFY-60Y5n_EaVQCJDV6Rw-lf6vS7-da2vl3Ysab732cxp_pTQrsWq4NzhtHz88bplqH0zqRjBujx0TyiRJ3rZXaurrLfGxXm-UYiHgUo6cnD_xKUKUEArHiBWbVGK2rlAKi8mir_726fRpvGn2J9S96OTW9bBY5EAFxrP7R0h7wUBUMRIIYI3YIjHOmy5t3Tqbv12a9gVq86XddBkR1JASKFoAy5-SQ7ZngY7ZgB0tXXU_SwfvuYWHq6im0jScsIjDAuOdvFBuQ3hvjfLI-myOBDP-KzP5kgPc2ygH63LpFCuabSSSK10Ey6Jv2DtnAcBLKSOqrwlSMlEj5amwFFgpKB5BkC4Quc6X4Jq_-BIRX6gPJl95AhzV5-LPjXs3QLc1dAB0v2ekMlfwPi-aTROmdO3zrfudHs8By9Q29gAkDgA6HwYs9R5hwXxwVEvrI9gz1u5M5DkyTw5xQm4DVf2kGttzIC6J852pM-6wPPDR1x513sgMbPHXt92jw8zqlGfzaKjuokDJ8ylrujswJD5g4Y2XN7uVqxea_MdMsYRw5W8hbxD_7_5_o_aKf4kKL-zQFgbooFi7Ax7imVm40]--></g></svg>