<svg xmlns="http://www.w3.org/2000/svg" xmlns:xlink="http://www.w3.org/1999/xlink" contentStyleType="text/css" data-diagram-type="SEQUENCE" height="1060px" preserveAspectRatio="none" style="width:2060px;height:1060px;background:#FFFFFF;" version="1.1" viewBox="0 0 2060 1060" width="2060px" zoomAndPan="magnify"><defs/><g><g><title>ProductsDetails</title><rect fill="#FFFFFF" height="111.5313" style="stroke:#181818;stroke-width:1;" width="10" x="243.6538" y="112.4297"/></g><g><title>ShareDropdown</title><rect fill="#FFFFFF" height="279" style="stroke:#181818;stroke-width:1;" width="10" x="1049.9873" y="355.2969"/></g><g><title>JsonViewerDialog</title><rect fill="#FFFFFF" height="58.2656" style="stroke:#181818;stroke-width:1;" width="10" x="1609.7134" y="779.9609"/></g><g><title>ShareDialog</title><rect fill="#FFFFFF" height="58.2656" style="stroke:#181818;stroke-width:1;" width="10" x="1737.0386" y="663.4297"/></g><rect fill="none" height="777.0625" style="stroke:#000000;stroke-width:1.5;" width="2043.4185" x="10" y="185.6953"/><rect fill="none" height="90.2031" style="stroke:#000000;stroke-width:1.5;" width="560.9961" x="176.8843" y="428.5625"/><g><title>User</title><rect fill="#000000" fill-opacity="0.00000" height="898.4609" width="8" x="34.9551" y="81.2969"/><line style="stroke:#181818;stroke-width:0.5;stroke-dasharray:5.0,5.0;" x1="38" x2="38" y1="81.2969" y2="979.7578"/></g><g><title>ProductsDetails</title><rect fill="#000000" fill-opacity="0.00000" height="898.4609" width="8" x="244.6538" y="81.2969"/><line style="stroke:#181818;stroke-width:0.5;stroke-dasharray:5.0,5.0;" x1="247.8843" x2="247.8843" y1="81.2969" y2="979.7578"/></g><g><title>useParams</title><rect fill="#000000" fill-opacity="0.00000" height="898.4609" width="8" x="400.8228" y="81.2969"/><line style="stroke:#181818;stroke-width:0.5;stroke-dasharray:5.0,5.0;" x1="404.2886" x2="404.2886" y1="81.2969" y2="979.7578"/></g><g><title>useState</title><rect fill="#000000" fill-opacity="0.00000" height="898.4609" width="8" x="685.9614" y="81.2969"/><line style="stroke:#181818;stroke-width:0.5;stroke-dasharray:5.0,5.0;" x1="689.0425" x2="689.0425" y1="81.2969" y2="979.7578"/></g><g><title>carPartsData</title><rect fill="#000000" fill-opacity="0.00000" height="898.4609" width="8" x="786.3906" y="81.2969"/><line style="stroke:#181818;stroke-width:0.5;stroke-dasharray:5.0,5.0;" x1="789.8804" x2="789.8804" y1="81.2969" y2="979.7578"/></g><g><title>PageNotification</title><rect fill="#000000" fill-opacity="0.00000" height="898.4609" width="8" x="913.3262" y="81.2969"/><line style="stroke:#181818;stroke-width:0.5;stroke-dasharray:5.0,5.0;" x1="916.9009" x2="916.9009" y1="81.2969" y2="979.7578"/></g><g><title>ShareDropdown</title><rect fill="#000000" fill-opacity="0.00000" height="898.4609" width="8" x="1050.9873" y="81.2969"/><line style="stroke:#181818;stroke-width:0.5;stroke-dasharray:5.0,5.0;" x1="1054.7515" x2="1054.7515" y1="81.2969" y2="979.7578"/></g><g><title>ProductData</title><rect fill="#000000" fill-opacity="0.00000" height="898.4609" width="8" x="1174.792" y="81.2969"/><line style="stroke:#181818;stroke-width:0.5;stroke-dasharray:5.0,5.0;" x1="1178.2231" x2="1178.2231" y1="81.2969" y2="979.7578"/></g><g><title>ProductButton</title><rect fill="#000000" fill-opacity="0.00000" height="898.4609" width="8" x="1292.6631" y="81.2969"/><line style="stroke:#181818;stroke-width:0.5;stroke-dasharray:5.0,5.0;" x1="1296.3608" x2="1296.3608" y1="81.2969" y2="979.7578"/></g><g><title>InstanceProductsTable</title><rect fill="#000000" fill-opacity="0.00000" height="898.4609" width="8" x="1446.5015" y="81.2969"/><line style="stroke:#181818;stroke-width:0.5;stroke-dasharray:5.0,5.0;" x1="1449.9653" x2="1449.9653" y1="81.2969" y2="979.7578"/></g><g><title>JsonViewerDialog</title><rect fill="#000000" fill-opacity="0.00000" height="898.4609" width="8" x="1610.7134" y="81.2969"/><line style="stroke:#181818;stroke-width:0.5;stroke-dasharray:5.0,5.0;" x1="1614.0376" x2="1614.0376" y1="81.2969" y2="979.7578"/></g><g><title>ShareDialog</title><rect fill="#000000" fill-opacity="0.00000" height="898.4609" width="8" x="1738.0386" y="81.2969"/><line style="stroke:#181818;stroke-width:0.5;stroke-dasharray:5.0,5.0;" x1="1741.3892" x2="1741.3892" y1="81.2969" y2="979.7578"/></g><g><title>Clipboard</title><rect fill="#000000" fill-opacity="0.00000" height="898.4609" width="8" x="1838.2456" y="81.2969"/><line style="stroke:#181818;stroke-width:0.5;stroke-dasharray:5.0,5.0;" x1="1841.688" x2="1841.688" y1="81.2969" y2="979.7578"/></g><g><title>Browser</title><rect fill="#000000" fill-opacity="0.00000" height="898.4609" width="8" x="1924.3228" y="81.2969"/><line style="stroke:#181818;stroke-width:0.5;stroke-dasharray:5.0,5.0;" x1="1927.8032" x2="1927.8032" y1="81.2969" y2="979.7578"/></g><g><title>Console</title><rect fill="#000000" fill-opacity="0.00000" height="898.4609" width="8" x="2004.6304" y="81.2969"/><line style="stroke:#181818;stroke-width:0.5;stroke-dasharray:5.0,5.0;" x1="2007.8423" x2="2007.8423" y1="81.2969" y2="979.7578"/></g><g class="participant participant-head" data-participant="User"><text fill="#000000" font-family="sans-serif" font-size="14" lengthAdjust="spacing" textLength="31.9102" x="20" y="77.9951">User</text><ellipse cx="38.9551" cy="13.5" fill="#E2E2F0" rx="8" ry="8" style="stroke:#181818;stroke-width:0.5;"/><path d="M38.9551,21.5 L38.9551,48.5 M25.9551,29.5 L51.9551,29.5 M38.9551,48.5 L25.9551,63.5 M38.9551,48.5 L51.9551,63.5" fill="none" style="stroke:#181818;stroke-width:0.5;"/></g><g class="participant participant-tail" data-participant="User"><text fill="#000000" font-family="sans-serif" font-size="14" lengthAdjust="spacing" textLength="31.9102" x="20" y="991.7529">User</text><ellipse cx="38.9551" cy="1003.5547" fill="#E2E2F0" rx="8" ry="8" style="stroke:#181818;stroke-width:0.5;"/><path d="M38.9551,1011.5547 L38.9551,1038.5547 M25.9551,1019.5547 L51.9551,1019.5547 M38.9551,1038.5547 L25.9551,1053.5547 M38.9551,1038.5547 L51.9551,1053.5547" fill="none" style="stroke:#181818;stroke-width:0.5;"/></g><g class="participant participant-head" data-participant="ProductsDetails"><rect fill="#E2E2F0" height="30.2969" rx="2.5" ry="2.5" style="stroke:#181818;stroke-width:0.5;" width="123.5391" x="186.8843" y="50"/><text fill="#000000" font-family="sans-serif" font-size="14" lengthAdjust="spacing" textLength="109.5391" x="193.8843" y="69.9951">ProductsDetails</text></g><g class="participant participant-tail" data-participant="ProductsDetails"><rect fill="#E2E2F0" height="30.2969" rx="2.5" ry="2.5" style="stroke:#181818;stroke-width:0.5;" width="123.5391" x="186.8843" y="978.7578"/><text fill="#000000" font-family="sans-serif" font-size="14" lengthAdjust="spacing" textLength="109.5391" x="193.8843" y="998.7529">ProductsDetails</text></g><g class="participant participant-head" data-participant="useParams"><rect fill="#E2E2F0" height="30.2969" rx="2.5" ry="2.5" style="stroke:#181818;stroke-width:0.5;" width="91.0684" x="359.2886" y="50"/><text fill="#000000" font-family="sans-serif" font-size="14" lengthAdjust="spacing" textLength="77.0684" x="366.2886" y="69.9951">useParams</text></g><g class="participant participant-tail" data-participant="useParams"><rect fill="#E2E2F0" height="30.2969" rx="2.5" ry="2.5" style="stroke:#181818;stroke-width:0.5;" width="91.0684" x="359.2886" y="978.7578"/><text fill="#000000" font-family="sans-serif" font-size="14" lengthAdjust="spacing" textLength="77.0684" x="366.2886" y="998.7529">useParams</text></g><g class="participant participant-head" data-participant="useState"><rect fill="#E2E2F0" height="30.2969" rx="2.5" ry="2.5" style="stroke:#181818;stroke-width:0.5;" width="75.8379" x="652.0425" y="50"/><text fill="#000000" font-family="sans-serif" font-size="14" lengthAdjust="spacing" textLength="61.8379" x="659.0425" y="69.9951">useState</text></g><g class="participant participant-tail" data-participant="useState"><rect fill="#E2E2F0" height="30.2969" rx="2.5" ry="2.5" style="stroke:#181818;stroke-width:0.5;" width="75.8379" x="652.0425" y="978.7578"/><text fill="#000000" font-family="sans-serif" font-size="14" lengthAdjust="spacing" textLength="61.8379" x="659.0425" y="998.7529">useState</text></g><g class="participant participant-head" data-participant="carPartsData"><rect fill="#E2E2F0" height="30.2969" rx="2.5" ry="2.5" style="stroke:#181818;stroke-width:0.5;" width="105.0205" x="737.8804" y="50"/><text fill="#000000" font-family="sans-serif" font-size="14" lengthAdjust="spacing" textLength="91.0205" x="744.8804" y="69.9951">carPartsData</text></g><g class="participant participant-tail" data-participant="carPartsData"><rect fill="#E2E2F0" height="30.2969" rx="2.5" ry="2.5" style="stroke:#181818;stroke-width:0.5;" width="105.0205" x="737.8804" y="978.7578"/><text fill="#000000" font-family="sans-serif" font-size="14" lengthAdjust="spacing" textLength="91.0205" x="744.8804" y="998.7529">carPartsData</text></g><g class="participant participant-head" data-participant="PageNotification"><rect fill="#E2E2F0" height="30.2969" rx="2.5" ry="2.5" style="stroke:#181818;stroke-width:0.5;" width="128.8506" x="852.9009" y="50"/><text fill="#000000" font-family="sans-serif" font-size="14" lengthAdjust="spacing" textLength="114.8506" x="859.9009" y="69.9951">PageNotification</text></g><g class="participant participant-tail" data-participant="PageNotification"><rect fill="#E2E2F0" height="30.2969" rx="2.5" ry="2.5" style="stroke:#181818;stroke-width:0.5;" width="128.8506" x="852.9009" y="978.7578"/><text fill="#000000" font-family="sans-serif" font-size="14" lengthAdjust="spacing" textLength="114.8506" x="859.9009" y="998.7529">PageNotification</text></g><g class="participant participant-head" data-participant="ShareDropdown"><rect fill="#E2E2F0" height="30.2969" rx="2.5" ry="2.5" style="stroke:#181818;stroke-width:0.5;" width="126.4717" x="991.7515" y="50"/><text fill="#000000" font-family="sans-serif" font-size="14" lengthAdjust="spacing" textLength="112.4717" x="998.7515" y="69.9951">ShareDropdown</text></g><g class="participant participant-tail" data-participant="ShareDropdown"><rect fill="#E2E2F0" height="30.2969" rx="2.5" ry="2.5" style="stroke:#181818;stroke-width:0.5;" width="126.4717" x="991.7515" y="978.7578"/><text fill="#000000" font-family="sans-serif" font-size="14" lengthAdjust="spacing" textLength="112.4717" x="998.7515" y="998.7529">ShareDropdown</text></g><g class="participant participant-head" data-participant="ProductData"><rect fill="#E2E2F0" height="30.2969" rx="2.5" ry="2.5" style="stroke:#181818;stroke-width:0.5;" width="101.1377" x="1128.2231" y="50"/><text fill="#000000" font-family="sans-serif" font-size="14" lengthAdjust="spacing" textLength="87.1377" x="1135.2231" y="69.9951">ProductData</text></g><g class="participant participant-tail" data-participant="ProductData"><rect fill="#E2E2F0" height="30.2969" rx="2.5" ry="2.5" style="stroke:#181818;stroke-width:0.5;" width="101.1377" x="1128.2231" y="978.7578"/><text fill="#000000" font-family="sans-serif" font-size="14" lengthAdjust="spacing" textLength="87.1377" x="1135.2231" y="998.7529">ProductData</text></g><g class="participant participant-head" data-participant="ProductButton"><rect fill="#E2E2F0" height="30.2969" rx="2.5" ry="2.5" style="stroke:#181818;stroke-width:0.5;" width="114.6045" x="1239.3608" y="50"/><text fill="#000000" font-family="sans-serif" font-size="14" lengthAdjust="spacing" textLength="100.6045" x="1246.3608" y="69.9951">ProductButton</text></g><g class="participant participant-tail" data-participant="ProductButton"><rect fill="#E2E2F0" height="30.2969" rx="2.5" ry="2.5" style="stroke:#181818;stroke-width:0.5;" width="114.6045" x="1239.3608" y="978.7578"/><text fill="#000000" font-family="sans-serif" font-size="14" lengthAdjust="spacing" textLength="100.6045" x="1246.3608" y="998.7529">ProductButton</text></g><g class="participant participant-head" data-participant="InstanceProductsTable"><rect fill="#E2E2F0" height="30.2969" rx="2.5" ry="2.5" style="stroke:#181818;stroke-width:0.5;" width="173.0723" x="1363.9653" y="50"/><text fill="#000000" font-family="sans-serif" font-size="14" lengthAdjust="spacing" textLength="159.0723" x="1370.9653" y="69.9951">InstanceProductsTable</text></g><g class="participant participant-tail" data-participant="InstanceProductsTable"><rect fill="#E2E2F0" height="30.2969" rx="2.5" ry="2.5" style="stroke:#181818;stroke-width:0.5;" width="173.0723" x="1363.9653" y="978.7578"/><text fill="#000000" font-family="sans-serif" font-size="14" lengthAdjust="spacing" textLength="159.0723" x="1370.9653" y="998.7529">InstanceProductsTable</text></g><g class="participant participant-head" data-participant="JsonViewerDialog"><rect fill="#E2E2F0" height="30.2969" rx="2.5" ry="2.5" style="stroke:#181818;stroke-width:0.5;" width="135.3516" x="1547.0376" y="50"/><text fill="#000000" font-family="sans-serif" font-size="14" lengthAdjust="spacing" textLength="121.3516" x="1554.0376" y="69.9951">JsonViewerDialog</text></g><g class="participant participant-tail" data-participant="JsonViewerDialog"><rect fill="#E2E2F0" height="30.2969" rx="2.5" ry="2.5" style="stroke:#181818;stroke-width:0.5;" width="135.3516" x="1547.0376" y="978.7578"/><text fill="#000000" font-family="sans-serif" font-size="14" lengthAdjust="spacing" textLength="121.3516" x="1554.0376" y="998.7529">JsonViewerDialog</text></g><g class="participant participant-head" data-participant="ShareDialog"><rect fill="#E2E2F0" height="30.2969" rx="2.5" ry="2.5" style="stroke:#181818;stroke-width:0.5;" width="99.2988" x="1692.3892" y="50"/><text fill="#000000" font-family="sans-serif" font-size="14" lengthAdjust="spacing" textLength="85.2988" x="1699.3892" y="69.9951">ShareDialog</text></g><g class="participant participant-tail" data-participant="ShareDialog"><rect fill="#E2E2F0" height="30.2969" rx="2.5" ry="2.5" style="stroke:#181818;stroke-width:0.5;" width="99.2988" x="1692.3892" y="978.7578"/><text fill="#000000" font-family="sans-serif" font-size="14" lengthAdjust="spacing" textLength="85.2988" x="1699.3892" y="998.7529">ShareDialog</text></g><g class="participant participant-head" data-participant="Clipboard"><rect fill="#E2E2F0" height="30.2969" rx="2.5" ry="2.5" style="stroke:#181818;stroke-width:0.5;" width="81.1152" x="1801.688" y="50"/><text fill="#000000" font-family="sans-serif" font-size="14" lengthAdjust="spacing" textLength="67.1152" x="1808.688" y="69.9951">Clipboard</text></g><g class="participant participant-tail" data-participant="Clipboard"><rect fill="#E2E2F0" height="30.2969" rx="2.5" ry="2.5" style="stroke:#181818;stroke-width:0.5;" width="81.1152" x="1801.688" y="978.7578"/><text fill="#000000" font-family="sans-serif" font-size="14" lengthAdjust="spacing" textLength="67.1152" x="1808.688" y="998.7529">Clipboard</text></g><g class="participant participant-head" data-participant="Browser"><rect fill="#E2E2F0" height="30.2969" rx="2.5" ry="2.5" style="stroke:#181818;stroke-width:0.5;" width="71.0391" x="1892.8032" y="50"/><text fill="#000000" font-family="sans-serif" font-size="14" lengthAdjust="spacing" textLength="57.0391" x="1899.8032" y="69.9951">Browser</text></g><g class="participant participant-tail" data-participant="Browser"><rect fill="#E2E2F0" height="30.2969" rx="2.5" ry="2.5" style="stroke:#181818;stroke-width:0.5;" width="71.0391" x="1892.8032" y="978.7578"/><text fill="#000000" font-family="sans-serif" font-size="14" lengthAdjust="spacing" textLength="57.0391" x="1899.8032" y="998.7529">Browser</text></g><g class="participant participant-head" data-participant="Console"><rect fill="#E2E2F0" height="30.2969" rx="2.5" ry="2.5" style="stroke:#181818;stroke-width:0.5;" width="69.5762" x="1973.8423" y="50"/><text fill="#000000" font-family="sans-serif" font-size="14" lengthAdjust="spacing" textLength="55.5762" x="1980.8423" y="69.9951">Console</text></g><g class="participant participant-tail" data-participant="Console"><rect fill="#E2E2F0" height="30.2969" rx="2.5" ry="2.5" style="stroke:#181818;stroke-width:0.5;" width="69.5762" x="1973.8423" y="978.7578"/><text fill="#000000" font-family="sans-serif" font-size="14" lengthAdjust="spacing" textLength="55.5762" x="1980.8423" y="998.7529">Console</text></g><g><title>ProductsDetails</title><rect fill="#FFFFFF" height="111.5313" style="stroke:#181818;stroke-width:1;" width="10" x="243.6538" y="112.4297"/></g><g><title>ShareDropdown</title><rect fill="#FFFFFF" height="279" style="stroke:#181818;stroke-width:1;" width="10" x="1049.9873" y="355.2969"/></g><g><title>JsonViewerDialog</title><rect fill="#FFFFFF" height="58.2656" style="stroke:#181818;stroke-width:1;" width="10" x="1609.7134" y="779.9609"/></g><g><title>ShareDialog</title><rect fill="#FFFFFF" height="58.2656" style="stroke:#181818;stroke-width:1;" width="10" x="1737.0386" y="663.4297"/></g><g class="message" data-participant-1="User" data-participant-2="ProductsDetails"><polygon fill="#181818" points="231.6538,108.4297,241.6538,112.4297,231.6538,116.4297,235.6538,112.4297" style="stroke:#181818;stroke-width:1;"/><line style="stroke:#181818;stroke-width:1;" x1="38.9551" x2="237.6538" y1="112.4297" y2="112.4297"/><text fill="#000000" font-family="sans-serif" font-size="13" lengthAdjust="spacing" textLength="126.4707" x="45.9551" y="107.3638">Render Component</text></g><g class="message" data-participant-1="ProductsDetails" data-participant-2="useParams"><polygon fill="#181818" points="392.8228,137.5625,402.8228,141.5625,392.8228,145.5625,396.8228,141.5625" style="stroke:#181818;stroke-width:1;"/><line style="stroke:#181818;stroke-width:1;" x1="253.6538" x2="398.8228" y1="141.5625" y2="141.5625"/><text fill="#000000" font-family="sans-serif" font-size="13" lengthAdjust="spacing" textLength="127.1689" x="260.6538" y="136.4966">Retrieve product ID</text></g><g class="message" data-participant-1="ProductsDetails" data-participant-2="carPartsData"><polygon fill="#181818" points="778.3906,166.6953,788.3906,170.6953,778.3906,174.6953,782.3906,170.6953" style="stroke:#181818;stroke-width:1;"/><line style="stroke:#181818;stroke-width:1;" x1="253.6538" x2="784.3906" y1="170.6953" y2="170.6953"/><text fill="#000000" font-family="sans-serif" font-size="13" lengthAdjust="spacing" textLength="96.4272" x="260.6538" y="165.6294">Find part by ID</text></g><path d="M10,185.6953 L74.4429,185.6953 L74.4429,192.8281 L64.4429,202.8281 L10,202.8281 L10,185.6953" fill="#EEEEEE" style="stroke:#000000;stroke-width:1.5;"/><rect fill="none" height="777.0625" style="stroke:#000000;stroke-width:1.5;" width="2043.4185" x="10" y="185.6953"/><text fill="#000000" font-family="sans-serif" font-size="13" font-weight="bold" lengthAdjust="spacing" textLength="19.4429" x="25" y="198.7622">alt</text><text fill="#000000" font-family="sans-serif" font-size="11" font-weight="bold" lengthAdjust="spacing" textLength="100.4072" x="89.4429" y="197.9058">[Part not found]</text><g class="message" data-participant-1="ProductsDetails" data-participant-2="User"><polygon fill="#181818" points="49.9551,219.9609,39.9551,223.9609,49.9551,227.9609,45.9551,223.9609" style="stroke:#181818;stroke-width:1;"/><line style="stroke:#181818;stroke-width:1;" x1="43.9551" x2="247.6538" y1="223.9609" y2="223.9609"/><text fill="#000000" font-family="sans-serif" font-size="13" lengthAdjust="spacing" textLength="180.6987" x="55.9551" y="218.895">Display "Product not found"</text></g><line style="stroke:#000000;stroke-width:1;stroke-dasharray:2.0,2.0;" x1="10" x2="2053.4185" y1="232.9609" y2="232.9609"/><text fill="#000000" font-family="sans-serif" font-size="11" font-weight="bold" lengthAdjust="spacing" textLength="75.9312" x="15" y="243.1714">[Part found]</text><g class="message" data-participant-1="ProductsDetails" data-participant-2="useState"><polygon fill="#181818" points="677.9614,263.8984,687.9614,267.8984,677.9614,271.8984,681.9614,267.8984" style="stroke:#181818;stroke-width:1;"/><line style="stroke:#181818;stroke-width:1;" x1="248.6538" x2="683.9614" y1="267.8984" y2="267.8984"/><text fill="#000000" font-family="sans-serif" font-size="13" lengthAdjust="spacing" textLength="417.3076" x="255.6538" y="262.8325">Initialize states (jsonDialogOpen, shareDialogOpen, notification)</text></g><g class="message" data-participant-1="User" data-participant-2="PageNotification"><polygon fill="#181818" points="905.3262,293.0313,915.3262,297.0313,905.3262,301.0313,909.3262,297.0313" style="stroke:#181818;stroke-width:1;"/><line style="stroke:#181818;stroke-width:1;" x1="38.9551" x2="911.3262" y1="297.0313" y2="297.0313"/><text fill="#000000" font-family="sans-serif" font-size="13" lengthAdjust="spacing" textLength="115.1465" x="45.9551" y="291.9653">View notifications</text></g><g class="message" data-participant-1="ProductsDetails" data-participant-2="PageNotification"><polygon fill="#181818" points="905.3262,322.1641,915.3262,326.1641,905.3262,330.1641,909.3262,326.1641" style="stroke:#181818;stroke-width:1;"/><line style="stroke:#181818;stroke-width:1;" x1="248.6538" x2="911.3262" y1="326.1641" y2="326.1641"/><text fill="#000000" font-family="sans-serif" font-size="13" lengthAdjust="spacing" textLength="124.103" x="255.6538" y="321.0981">Render notification</text></g><g class="message" data-participant-1="User" data-participant-2="ShareDropdown"><polygon fill="#181818" points="1037.9873,351.2969,1047.9873,355.2969,1037.9873,359.2969,1041.9873,355.2969" style="stroke:#181818;stroke-width:1;"/><line style="stroke:#181818;stroke-width:1;" x1="38.9551" x2="1043.9873" y1="355.2969" y2="355.2969"/><text fill="#000000" font-family="sans-serif" font-size="13" lengthAdjust="spacing" textLength="357.208" x="45.9551" y="350.231">Interact with ShareDropdown (Copy, Download, Share)</text></g><g class="message" data-participant-1="ShareDropdown" data-participant-2="ProductsDetails"><polygon fill="#181818" points="259.6538,380.4297,249.6538,384.4297,259.6538,388.4297,255.6538,384.4297" style="stroke:#181818;stroke-width:1;"/><line style="stroke:#181818;stroke-width:1;" x1="253.6538" x2="1048.9873" y1="384.4297" y2="384.4297"/><text fill="#000000" font-family="sans-serif" font-size="13" lengthAdjust="spacing" textLength="128.1592" x="265.6538" y="379.3638">Trigger handleCopy</text></g><g class="message" data-participant-1="ProductsDetails" data-participant-2="Clipboard"><polygon fill="#181818" points="1830.2456,409.5625,1840.2456,413.5625,1830.2456,417.5625,1834.2456,413.5625" style="stroke:#181818;stroke-width:1;"/><line style="stroke:#181818;stroke-width:1;" x1="248.6538" x2="1836.2456" y1="413.5625" y2="413.5625"/><text fill="#000000" font-family="sans-serif" font-size="13" lengthAdjust="spacing" textLength="100.7754" x="255.6538" y="408.4966">Copy part UUID</text></g><path d="M176.8843,428.5625 L241.3271,428.5625 L241.3271,435.6953 L231.3271,445.6953 L176.8843,445.6953 L176.8843,428.5625" fill="#EEEEEE" style="stroke:#000000;stroke-width:1.5;"/><rect fill="none" height="90.2031" style="stroke:#000000;stroke-width:1.5;" width="560.9961" x="176.8843" y="428.5625"/><text fill="#000000" font-family="sans-serif" font-size="13" font-weight="bold" lengthAdjust="spacing" textLength="19.4429" x="191.8843" y="441.6294">alt</text><text fill="#000000" font-family="sans-serif" font-size="11" font-weight="bold" lengthAdjust="spacing" textLength="92.5332" x="256.3271" y="440.7729">[Copy success]</text><g class="message" data-participant-1="ProductsDetails" data-participant-2="useState"><polygon fill="#181818" points="677.9614,462.8281,687.9614,466.8281,677.9614,470.8281,681.9614,466.8281" style="stroke:#181818;stroke-width:1;"/><line style="stroke:#181818;stroke-width:1;" x1="248.6538" x2="683.9614" y1="466.8281" y2="466.8281"/><text fill="#000000" font-family="sans-serif" font-size="13" lengthAdjust="spacing" textLength="153.5688" x="255.6538" y="461.7622">Set success notification</text></g><line style="stroke:#000000;stroke-width:1;stroke-dasharray:2.0,2.0;" x1="176.8843" x2="737.8804" y1="475.8281" y2="475.8281"/><text fill="#000000" font-family="sans-serif" font-size="11" font-weight="bold" lengthAdjust="spacing" textLength="79.6426" x="181.8843" y="486.0386">[Copy failed]</text><g class="message" data-participant-1="ProductsDetails" data-participant-2="useState"><polygon fill="#181818" points="677.9614,506.7656,687.9614,510.7656,677.9614,514.7656,681.9614,510.7656" style="stroke:#181818;stroke-width:1;"/><line style="stroke:#181818;stroke-width:1;" x1="248.6538" x2="683.9614" y1="510.7656" y2="510.7656"/><text fill="#000000" font-family="sans-serif" font-size="13" lengthAdjust="spacing" textLength="134.7036" x="255.6538" y="505.6997">Set error notification</text></g><g class="message" data-participant-1="ShareDropdown" data-participant-2="ProductsDetails"><polygon fill="#181818" points="259.6538,542.8984,249.6538,546.8984,259.6538,550.8984,255.6538,546.8984" style="stroke:#181818;stroke-width:1;"/><line style="stroke:#181818;stroke-width:1;" x1="253.6538" x2="1048.9873" y1="546.8984" y2="546.8984"/><text fill="#000000" font-family="sans-serif" font-size="13" lengthAdjust="spacing" textLength="159.8022" x="265.6538" y="541.8325">Trigger handleDownload</text></g><g class="message" data-participant-1="ProductsDetails" data-participant-2="Browser"><polygon fill="#181818" points="1916.3228,572.0313,1926.3228,576.0313,1916.3228,580.0313,1920.3228,576.0313" style="stroke:#181818;stroke-width:1;"/><line style="stroke:#181818;stroke-width:1;" x1="248.6538" x2="1922.3228" y1="576.0313" y2="576.0313"/><text fill="#000000" font-family="sans-serif" font-size="13" lengthAdjust="spacing" textLength="175.2207" x="255.6538" y="570.9653">Download part UUID as file</text></g><g class="message" data-participant-1="ShareDropdown" data-participant-2="ProductsDetails"><polygon fill="#181818" points="259.6538,601.1641,249.6538,605.1641,259.6538,609.1641,255.6538,605.1641" style="stroke:#181818;stroke-width:1;"/><line style="stroke:#181818;stroke-width:1;" x1="253.6538" x2="1048.9873" y1="605.1641" y2="605.1641"/><text fill="#000000" font-family="sans-serif" font-size="13" lengthAdjust="spacing" textLength="209.1108" x="265.6538" y="600.0981">Trigger handleOpenShareDialog</text></g><g class="message" data-participant-1="ProductsDetails" data-participant-2="ShareDialog"><polygon fill="#181818" points="1730.0386,630.2969,1740.0386,634.2969,1730.0386,638.2969,1734.0386,634.2969" style="stroke:#181818;stroke-width:1;"/><line style="stroke:#181818;stroke-width:1;" x1="248.6538" x2="1736.0386" y1="634.2969" y2="634.2969"/><text fill="#000000" font-family="sans-serif" font-size="13" lengthAdjust="spacing" textLength="118.0601" x="255.6538" y="629.231">Open ShareDialog</text></g><g class="message" data-participant-1="User" data-participant-2="ShareDialog"><polygon fill="#181818" points="1725.0386,659.4297,1735.0386,663.4297,1725.0386,667.4297,1729.0386,663.4297" style="stroke:#181818;stroke-width:1;"/><line style="stroke:#181818;stroke-width:1;" x1="38.9551" x2="1731.0386" y1="663.4297" y2="663.4297"/><text fill="#000000" font-family="sans-serif" font-size="13" lengthAdjust="spacing" textLength="165.7754" x="45.9551" y="658.3638">Interact with ShareDialog</text></g><g class="message" data-participant-1="ShareDialog" data-participant-2="ProductsDetails"><polygon fill="#181818" points="259.6538,688.5625,249.6538,692.5625,259.6538,696.5625,255.6538,692.5625" style="stroke:#181818;stroke-width:1;"/><line style="stroke:#181818;stroke-width:1;" x1="253.6538" x2="1736.0386" y1="692.5625" y2="692.5625"/><text fill="#000000" font-family="sans-serif" font-size="13" lengthAdjust="spacing" textLength="209.8027" x="265.6538" y="687.4966">Trigger handleCloseShareDialog</text></g><g class="message" data-participant-1="ProductsDetails" data-participant-2="ShareDialog"><polygon fill="#181818" points="1730.0386,717.6953,1740.0386,721.6953,1730.0386,725.6953,1734.0386,721.6953" style="stroke:#181818;stroke-width:1;"/><line style="stroke:#181818;stroke-width:1;" x1="248.6538" x2="1736.0386" y1="721.6953" y2="721.6953"/><text fill="#000000" font-family="sans-serif" font-size="13" lengthAdjust="spacing" textLength="118.752" x="255.6538" y="716.6294">Close ShareDialog</text></g><g class="message" data-participant-1="User" data-participant-2="ProductButton"><polygon fill="#181818" points="1284.6631,746.8281,1294.6631,750.8281,1284.6631,754.8281,1288.6631,750.8281" style="stroke:#181818;stroke-width:1;"/><line style="stroke:#181818;stroke-width:1;" x1="38.9551" x2="1290.6631" y1="750.8281" y2="750.8281"/><text fill="#000000" font-family="sans-serif" font-size="13" lengthAdjust="spacing" textLength="283.9941" x="45.9551" y="745.7622">Click "DIGITAL PRODUCT PASSPORT v5.0.0"</text></g><g class="message" data-participant-1="ProductsDetails" data-participant-2="JsonViewerDialog"><polygon fill="#181818" points="1597.7134,775.9609,1607.7134,779.9609,1597.7134,783.9609,1601.7134,779.9609" style="stroke:#181818;stroke-width:1;"/><line style="stroke:#181818;stroke-width:1;" x1="248.6538" x2="1603.7134" y1="779.9609" y2="779.9609"/><text fill="#000000" font-family="sans-serif" font-size="13" lengthAdjust="spacing" textLength="119.5073" x="255.6538" y="774.895">Open JSON Viewer</text></g><g class="message" data-participant-1="User" data-participant-2="JsonViewerDialog"><polygon fill="#181818" points="1597.7134,805.0938,1607.7134,809.0938,1597.7134,813.0938,1601.7134,809.0938" style="stroke:#181818;stroke-width:1;"/><line style="stroke:#181818;stroke-width:1;" x1="38.9551" x2="1603.7134" y1="809.0938" y2="809.0938"/><text fill="#000000" font-family="sans-serif" font-size="13" lengthAdjust="spacing" textLength="120.1992" x="45.9551" y="804.0278">Close JSON Viewer</text></g><g class="message" data-participant-1="JsonViewerDialog" data-participant-2="ProductsDetails"><polygon fill="#181818" points="259.6538,834.2266,249.6538,838.2266,259.6538,842.2266,255.6538,838.2266" style="stroke:#181818;stroke-width:1;"/><line style="stroke:#181818;stroke-width:1;" x1="253.6538" x2="1613.7134" y1="838.2266" y2="838.2266"/><text fill="#000000" font-family="sans-serif" font-size="13" lengthAdjust="spacing" textLength="198.8022" x="265.6538" y="833.1606">Trigger handleCloseJsonDialog</text></g><g class="message" data-participant-1="User" data-participant-2="ProductButton"><polygon fill="#181818" points="1284.6631,863.3594,1294.6631,867.3594,1284.6631,871.3594,1288.6631,867.3594" style="stroke:#181818;stroke-width:1;"/><line style="stroke:#181818;stroke-width:1;" x1="38.9551" x2="1290.6631" y1="867.3594" y2="867.3594"/><text fill="#000000" font-family="sans-serif" font-size="13" lengthAdjust="spacing" textLength="339.7964" x="45.9551" y="862.2935">Click other buttons (e.g., PCF, TRANSMISSION PASS)</text></g><g class="message" data-participant-1="ProductsDetails" data-participant-2="Console"><polygon fill="#181818" points="1996.6304,892.4922,2006.6304,896.4922,1996.6304,900.4922,2000.6304,896.4922" style="stroke:#181818;stroke-width:1;"/><line style="stroke:#181818;stroke-width:1;" x1="248.6538" x2="2002.6304" y1="896.4922" y2="896.4922"/><text fill="#000000" font-family="sans-serif" font-size="13" lengthAdjust="spacing" textLength="121.3799" x="255.6538" y="891.4263">Log button actions</text></g><g class="message" data-participant-1="User" data-participant-2="InstanceProductsTable"><polygon fill="#181818" points="1438.5015,921.625,1448.5015,925.625,1438.5015,929.625,1442.5015,925.625" style="stroke:#181818;stroke-width:1;"/><line style="stroke:#181818;stroke-width:1;" x1="38.9551" x2="1444.5015" y1="925.625" y2="925.625"/><text fill="#000000" font-family="sans-serif" font-size="13" lengthAdjust="spacing" textLength="151.5313" x="45.9551" y="920.5591">View instance products</text></g><g class="message" data-participant-1="ProductsDetails" data-participant-2="InstanceProductsTable"><polygon fill="#181818" points="1438.5015,950.7578,1448.5015,954.7578,1438.5015,958.7578,1442.5015,954.7578" style="stroke:#181818;stroke-width:1;"/><line style="stroke:#181818;stroke-width:1;" x1="248.6538" x2="1444.5015" y1="954.7578" y2="954.7578"/><text fill="#000000" font-family="sans-serif" font-size="13" lengthAdjust="spacing" textLength="83.9224" x="255.6538" y="949.6919">Render table</text></g><!--SRC=[dLLDZzem4BtdLumuxKeKxQMN72gnH5i5RI4YeNUJ3E3MQqUs0T5VNpiE4EUZiEL4vkFDpFFpcEHQI5Whb459fAOvBGdNa4XH77Aj8jI4CkNv3WeJ8ib7nvfgej4pvaIQK0D3DF7noGuNGjCjpOccWdlET4yaHbAKXJZnlhQwSCx-Uj2wXHLpfGdFyJ9GHZRCxt6k1Fz9yOGoeeI9NKyhpXvObk3BjpOv8QoG5yOr4n-buCXrG79DZuQC3ez1os3XhdnQ82qf7X5A5mPnr9VHf3M4DyeBi4t3vcmJ2BFycaykD6p5WHS1c5yFZXqeX8Ygaf4pZEg8MzweIYnmS1na2bsjVzQvQ2Cqnq6rOPF-GL3Mek3fb-7VCRmiaOz1tIXt1jxGoNDLudeGBHM5O0_IIr13FNLpwrDiPWTUEK-NTXQDqb039whtlXEUPg8yZo4o_vaWnTYvNVTNDdsTMvSFqYUrJDBTphIp9xnWQAiC3JXZjDm88eiGR9XJo7fj158rOKHIcTKXpr4vckuUNuhwak3pP3ChCLIOMvE9nUEGAAMGFO2reZxBoeNr8MPUfJWvvTU1Dsw0ADYQvl-hhfLhSs4Cb6-4X61pe9tKk76-HdhaMEFqYV46s8AxEHhVZyYD2NDkdvomIhe_OhrZlUlTtEeMYEQ_OHJ5t-Di-Wx9QXcjPnaaqpHDbgiCZbydBvENqL1JxJrVSpzFbmjmTf-gphlGRAqBviPiexNZ7YLvVbsARROwRTsdJEYzyMugcrcuEDbDnf3CtiQGhQQBz4USfh5fsnBvFBXDJAfWvhw-co4SL4MLtR1U1xqFRhsOQUsxF6-3ota0fDxGkdh3xNO8Xj-clm00]--></g></svg>